<svg width="39" height="37" viewBox="0 0 39 37" fill="none" xmlns="http://www.w3.org/2000/svg">
<mask id="path-1-outside-1_9_29" maskUnits="userSpaceOnUse" x="0" y="0" width="39" height="37" fill="black">
<rect fill="white" width="39" height="37"/>
<path d="M33 18.9531L22.0273 22.001L31.0537 31.9834L24.498 34L15.3301 23.8613L3.99902 27.0098L3 4L33 18.9531Z"/>
</mask>
<path d="M33 18.9531L22.0273 22.001L31.0537 31.9834L24.498 34L15.3301 23.8613L3.99902 27.0098L3 4L33 18.9531Z" fill="#03A062"/>
<path d="M33 18.9531L33.5353 20.8802L38.5532 19.4864L33.8922 17.1632L33 18.9531ZM22.0273 22.001L21.4921 20.0739L18.3721 20.9406L20.5439 23.3424L22.0273 22.001ZM31.0537 31.9834L31.6417 33.895L34.6436 32.9716L32.5372 30.642L31.0537 31.9834ZM24.498 34L23.0146 35.3414L23.8688 36.2861L25.0861 35.9116L24.498 34ZM15.3301 23.8613L16.8135 22.5199L15.9849 21.6036L14.7946 21.9343L15.3301 23.8613ZM3.99902 27.0098L2.00091 27.0965L2.11005 29.6104L4.53446 28.9368L3.99902 27.0098ZM3 4L3.89219 2.21003L0.854665 0.696013L1.00188 4.08675L3 4ZM33 18.9531L32.4647 17.0261L21.4921 20.0739L22.0273 22.001L22.5626 23.928L33.5353 20.8802L33 18.9531ZM22.0273 22.001L20.5439 23.3424L29.5702 33.3248L31.0537 31.9834L32.5372 30.642L23.5108 20.6596L22.0273 22.001ZM31.0537 31.9834L30.4657 30.0718L23.91 32.0884L24.498 34L25.0861 35.9116L31.6417 33.895L31.0537 31.9834ZM24.498 34L25.9815 32.6586L16.8135 22.5199L15.3301 23.8613L13.8466 25.2027L23.0146 35.3414L24.498 34ZM15.3301 23.8613L14.7946 21.9343L3.46359 25.0828L3.99902 27.0098L4.53446 28.9368L15.8655 25.7883L15.3301 23.8613ZM3.99902 27.0098L5.99714 26.923L4.99812 3.91325L3 4L1.00188 4.08675L2.00091 27.0965L3.99902 27.0098ZM3 4L2.10781 5.78997L32.1078 20.7431L33 18.9531L33.8922 17.1632L3.89219 2.21003L3 4Z" fill="black" mask="url(#path-1-outside-1_9_29)"/>
</svg>
