<?xml version="1.0" encoding="UTF-8" standalone="no"?>
<!-- Created with Inkscape (http://www.inkscape.org/) -->

<svg
   version="1.1"
   id="svg1"
   width="733.96008"
   height="144.98135"
   viewBox="0 0 733.96008 144.98135"
   xmlns="http://www.w3.org/2000/svg"
   xmlns:svg="http://www.w3.org/2000/svg">
  <defs
     id="defs1" />
  <g
     id="g1"
     transform="translate(-141.65568,-450.51419)">
    <g
       id="g3"
       transform="translate(-3.7034355,18.517182)">
      <path
         style="fill:#dea572"
         d="m 559.53583,575.64986 c -1.27858,-0.93492 -1.98592,-3.03225 -2.30001,-6.8197 -0.58767,-7.08654 0.96937,-8.83016 7.88527,-8.83016 2.73803,0 6.30147,-0.68427 7.91876,-1.52061 3.08958,-1.59768 6.96015,-7.96475 6.96015,-11.4494 0,-1.87308 -6.22986,-18.92265 -19.09147,-52.24856 -7.24411,-18.77034 -6.86914,-20.04764 5.74667,-19.5752 L 574.5,475.5 582.65857,499 c 4.48721,12.925 8.41699,22.825 8.73284,22 0.31585,-0.825 3.55213,-10.725 7.19174,-22 3.6396,-11.275 7.33229,-21.30433 8.20598,-22.28739 1.3237,-1.48942 2.93239,-1.73948 9.6497,-1.5 7.76596,0.27687 8.07175,0.37894 8.35006,2.78739 0.31271,2.70623 -23.55428,67.38961 -29.70303,80.5 -6.93878,14.79487 -11.99885,18.44085 -25.64473,18.47804 -5.21894,0.0142 -8.70955,-0.45383 -9.9053,-1.32818 z M 816.5,576.31087 c -1.65,-0.26831 -3.5625,-0.95312 -4.25,-1.5218 -1.58305,-1.30945 -1.8273,-93.14047 -0.2587,-97.26619 0.96397,-2.53542 1.20237,-2.59926 8.6449,-2.3151 7.56394,0.2888 8.22299,0.59151 9.99656,4.59165 0.073,0.16468 1.78326,-0.82064 3.80053,-2.1896 10.87871,-7.38249 27.99836,-4.42825 36.49326,6.29744 6.74378,8.51471 9.56603,20.4054 7.94668,33.48084 -1.59657,12.89149 -9.31755,24.55018 -19.37323,29.25364 -7.15187,3.34523 -17.43802,3.29623 -23.85106,-0.11362 L 831,544.05627 v 14.28074 c 0,9.85938 -0.387,14.80234 -1.25,15.9655 -1.34005,1.80613 -8.14794,2.83803 -13.25,2.00836 z m 35.11349,-46.21689 c 4.6835,-2.85591 7.38764,-9.32586 7.38093,-17.6597 -0.007,-8.82095 -1.37933,-13.71432 -4.97411,-17.73758 -2.61189,-2.92321 -3.36969,-3.1967 -8.85772,-3.1967 -5.02141,0 -6.43839,0.40826 -8.67704,2.5 -3.66724,3.42658 -5.25516,6.78253 -6.05219,12.7908 -1.4553,10.97063 1.71367,20.95306 7.59666,23.92989 3.63072,1.83717 10.02682,1.54207 13.58347,-0.62671 z m -649.07776,35.83993 c -13.7236,-2.10657 -25.12081,-7.74781 -35.57207,-17.607 -8.23505,-7.76853 -13.35875,-15.21807 -17.10835,-24.87451 -6.83518,-17.60276 -5.85769,-36.60441 2.79942,-54.41867 8.3646,-17.21235 24.42679,-30.32308 42.95475,-35.06173 15.61283,-3.99309 33.26845,-1.86173 47.7443,5.76363 10.89182,5.73742 23.16552,18.34434 28.49084,29.26437 5.67807,11.64335 7.50276,19.37904 7.43019,31.5 -0.10717,17.90257 -6.53261,32.87867 -19.7833,46.10998 -12.18528,12.16745 -26.12471,18.47575 -43.55804,19.71222 -4.08841,0.28997 -10.11739,0.11524 -13.39774,-0.38829 z M 323.36856,547.5554 c -7.23861,-1.63087 -11.8857,-3.85471 -12.74738,-6.1002 -1.33568,-3.48074 -0.65513,-13.27839 1.04008,-14.9736 1.95362,-1.95363 3.83775,-1.68247 14.33874,2.06356 14.19101,5.06239 27.52762,3.22298 30.63997,-4.2259 2.85627,-6.83604 -0.61971,-11.08099 -13.32233,-16.2695 -22.53303,-9.20386 -28.5897,-13.5303 -31.69353,-22.63954 -5.36647,-15.74971 2.53617,-31.90864 18.10298,-37.01612 10.47777,-3.43777 32.6005,-1.6856 40.00928,3.16882 1.99056,1.30426 2.26363,2.31801 2.26363,8.40343 0,5.894 -0.31107,7.13812 -2.09765,8.38949 -1.87051,1.31016 -2.70966,1.25254 -7.75,-0.53219 -7.84935,-2.77938 -21.49522,-3.55107 -26.40871,-1.49344 -6.12793,2.56619 -7.2939,9.2787 -2.50324,14.41122 1.15067,1.23279 5.71274,3.63769 10.13792,5.34422 24.41442,9.4152 33.11591,17.24502 34.35535,30.91384 1.14191,12.59315 -5.24484,23.08688 -17.53717,28.81438 -5.08067,2.36729 -7.04784,2.67956 -18.1965,2.88859 -7.85496,0.14727 -14.77847,-0.27898 -18.63144,-1.14706 z m 79.67861,0.19686 C 398.30781,546.16289 392.70192,540.28617 391.226,535.35998 390.43857,532.73179 390,524.24436 390,511.63398 V 492 h -3.4349 c -1.8892,0 -4.5892,-0.43886 -6,-0.97525 -2.38481,-0.9067 -2.5651,-1.42523 -2.5651,-7.37755 0,-7.44118 0.74828,-8.38227 7.01962,-8.82845 L 389.5,474.5 l 0.29368,-8.45016 c 0.16152,-4.64759 0.72787,-8.97335 1.25856,-9.61279 1.37392,-1.65547 13.50699,-2.74331 15.95926,-1.43089 1.75717,0.9404 1.9885,2.10491 1.9885,10.00997 0,10.26658 -0.52824,9.77235 10.93187,10.22809 6.08936,0.24216 6.47095,0.40269 7.16585,3.01451 0.40369,1.51731 0.43048,4.89231 0.0595,7.5 L 426.4828,490.5 417.9914,491 409.5,491.5 409.19283,505 c -0.36537,16.05763 0.37246,23.42243 2.56632,25.61629 1.26706,1.26706 2.76868,1.47951 6.96849,0.9859 C 426.76878,530.65711 428,531.70582 428,539.5 c 0,5.63848 -0.27686,6.58022 -2.25,7.65347 -3.01695,1.64099 -18.38628,2.04636 -22.70283,0.59879 z m 350.47199,-0.29938 c -8.23134,-3.1182 -14.46051,-11.9098 -14.49162,-20.45288 -0.0272,-7.48204 1.76264,-11.88542 6.93272,-17.0555 5.94896,-5.94896 11.68294,-7.87451 25.78974,-8.66057 11.14409,-0.62098 11.5345,-0.8993 8.76739,-6.2503 -2.90653,-5.62061 -14.08895,-6.41075 -26.26329,-1.85574 -5.3569,2.00427 -5.51284,2.00782 -7.35333,0.16732 -2.33034,-2.33034 -2.98206,-11.33741 -0.99369,-13.73324 2.55376,-3.0771 13.88273,-5.80837 24.09292,-5.80851 14.71115,-2e-4 22.71382,3.66451 27.72557,12.69654 l 2.77443,5 0.31117,26.96869 C 801.1688,549.46509 801.61182,548 791.88145,548 c -4.93075,0 -6.01301,-0.35179 -7.70679,-2.50508 l -1.9705,-2.50508 -5.29125,2.7452 c -6.43505,3.33862 -17.05639,4.11856 -23.39375,1.71784 z m 18.53769,-14.45213 c 5.60217,-1.55629 8.8673,-5.66147 9.17968,-11.54141 L 781.5,516.5 l -8,0.0421 c -9.04319,0.0476 -12.48328,1.58913 -14.52019,6.50666 -1.74825,4.22064 0.22723,8.65664 4.39283,9.86425 4.21221,1.22112 4.59065,1.22495 8.68421,0.0878 z m -312.78339,14.08589 c -5.95302,-1.52112 -14.32751,-6.42162 -18.25469,-10.6821 -14.45118,-15.67768 -13.73449,-38.9257 1.64851,-53.47431 7.80316,-7.37989 14.67147,-10.2157 24.89897,-10.28033 7.54377,-0.0477 8.86822,0.26068 15.76929,3.67137 11.50374,5.68546 18.24531,14.40945 20.89427,27.03845 1.46581,6.98832 -0.0863,17.45007 -3.62481,24.43307 -3.04998,6.01886 -12.14079,14.63374 -18.31424,17.35547 -5.25071,2.31492 -17.50496,3.34689 -23.0173,1.93838 z M 515,547.35868 c -3.85732,-1.514 -4,-2.81519 -4,-36.47838 0,-28.42798 0.20686,-32.9443 1.57143,-34.30887 1.12248,-1.12248 3.52705,-1.57143 8.41659,-1.57143 6.30695,0 7.0019,0.21516 8.83854,2.73646 1.946,2.67144 2.04148,2.69294 4.01721,0.90492 4.64283,-4.20169 15.63698,-6.01778 18.5848,-3.06995 1.7584,1.75839 2.21324,12.86581 0.62935,15.36909 -0.55815,0.88214 -3.49923,1.70836 -7.5875,2.13151 -7.11113,0.73603 -11.05099,2.83172 -13.20568,7.02437 -0.86168,1.67669 -1.24435,8.75455 -1.26531,23.4036 -0.0165,11.55 -0.44236,21.65171 -0.94628,22.44825 -0.95483,1.50925 -12.13297,2.55661 -15.05315,1.41043 z M 632.22251,546.4433 C 630.00033,544.88682 630,544.88163 630,511.06574 c 0,-27.85517 0.24827,-34.0269 1.4075,-34.98897 0.8699,-0.72195 4.17199,-1.05519 8.64523,-0.87245 6.02239,0.24603 7.42325,0.63152 8.3425,2.29568 0.60762,1.1 1.21451,2.18474 1.34864,2.41054 0.13413,0.22579 1.03413,-0.28244 2,-1.12942 4.11666,-3.60988 8.80019,-5.15468 15.75613,-5.19695 7.71696,-0.0469 11.75379,1.50989 17.1273,6.60503 l 3.1273,2.96529 2.48842,-2.48842 c 11.59002,-11.59002 32.24936,-9.189 39.48129,4.5885 l 2.75337,5.24543 0.3466,26.82685 C 733.23404,549.0423 733.55239,548 723.4558,548 c -10.66306,0 -10.36157,0.78567 -10.68273,-27.83821 L 712.5,495.82358 l -2.80576,-2.41179 c -4.98194,-4.28239 -13.00962,-2.39847 -16.42731,3.85514 -1.5118,2.76624 -1.80996,6.48187 -2.06497,25.73307 -0.3436,25.93976 0.0211,25 -9.70196,25 -9.75977,0 -9.36068,1.06797 -9.71612,-26 -0.33646,-25.62194 -0.78969,-27.93134 -5.89693,-30.04683 -4.35471,-1.80378 -9.27258,-0.41692 -12.81056,3.61261 L 650,499.06959 v 22.89378 c 0,19.47919 -0.23438,23.12815 -1.57143,24.4652 -2.145,2.145 -13.15039,2.155 -16.20606,0.0147 z"
         id="path16" />
      <path
         style="fill:#a0a19e"
         d="m 559.53583,575.64986 c -1.27858,-0.93492 -1.98592,-3.03225 -2.30001,-6.8197 -0.58767,-7.08654 0.96937,-8.83016 7.88527,-8.83016 2.73803,0 6.30147,-0.68427 7.91876,-1.52061 3.08958,-1.59768 6.96015,-7.96475 6.96015,-11.4494 0,-1.87308 -6.22986,-18.92265 -19.09147,-52.24856 -7.24411,-18.77034 -6.86914,-20.04764 5.74667,-19.5752 L 574.5,475.5 582.65857,499 c 4.48721,12.925 8.41699,22.825 8.73284,22 0.31585,-0.825 3.55213,-10.725 7.19174,-22 3.6396,-11.275 7.33229,-21.30433 8.20598,-22.28739 1.3237,-1.48942 2.93239,-1.73948 9.6497,-1.5 7.76596,0.27687 8.07175,0.37894 8.35006,2.78739 0.31271,2.70623 -23.55428,67.38961 -29.70303,80.5 -6.93878,14.79487 -11.99885,18.44085 -25.64473,18.47804 -5.21894,0.0142 -8.70955,-0.45383 -9.9053,-1.32818 z M 816.5,576.31087 c -1.65,-0.26831 -3.5625,-0.95312 -4.25,-1.5218 -1.58305,-1.30945 -1.8273,-93.14047 -0.2587,-97.26619 0.96397,-2.53542 1.20237,-2.59926 8.6449,-2.3151 7.56394,0.2888 8.22299,0.59151 9.99656,4.59165 0.073,0.16468 1.78326,-0.82064 3.80053,-2.1896 10.87871,-7.38249 27.99836,-4.42825 36.49326,6.29744 6.74378,8.51471 9.56603,20.4054 7.94668,33.48084 -1.59657,12.89149 -9.31755,24.55018 -19.37323,29.25364 -7.15187,3.34523 -17.43802,3.29623 -23.85106,-0.11362 L 831,544.05627 v 14.28074 c 0,9.85938 -0.387,14.80234 -1.25,15.9655 -1.34005,1.80613 -8.14794,2.83803 -13.25,2.00836 z m 35.11349,-46.21689 c 4.6835,-2.85591 7.38764,-9.32586 7.38093,-17.6597 -0.007,-8.82095 -1.37933,-13.71432 -4.97411,-17.73758 -2.61189,-2.92321 -3.36969,-3.1967 -8.85772,-3.1967 -5.02141,0 -6.43839,0.40826 -8.67704,2.5 -3.66724,3.42658 -5.25516,6.78253 -6.05219,12.7908 -1.4553,10.97063 1.71367,20.95306 7.59666,23.92989 3.63072,1.83717 10.02682,1.54207 13.58347,-0.62671 z m -649.07776,35.83993 c -13.7236,-2.10657 -25.12081,-7.74781 -35.57207,-17.607 -8.23505,-7.76853 -13.35875,-15.21807 -17.10835,-24.87451 -6.83518,-17.60276 -5.85769,-36.60441 2.79942,-54.41867 8.3646,-17.21235 24.42679,-30.32308 42.95475,-35.06173 15.61283,-3.99309 33.26845,-1.86173 47.7443,5.76363 10.89182,5.73742 23.16552,18.34434 28.49084,29.26437 5.67807,11.64335 7.50276,19.37904 7.43019,31.5 -0.10717,17.90257 -6.53261,32.87867 -19.7833,46.10998 -12.18528,12.16745 -26.12471,18.47575 -43.55804,19.71222 -4.08841,0.28997 -10.11739,0.11524 -13.39774,-0.38829 z m -43.90785,-63.58387 c 2.12966,-0.90748 11.97212,-4.72502 21.87212,-8.48342 11.57136,-4.39292 17.89003,-7.28581 17.69208,-8.10004 -0.16936,-0.69662 -1.40686,-4.04333 -2.75,-7.43714 -2.89548,-7.31619 -3.05913,-12.37449 -0.5771,-17.83802 6.6488,-14.63556 27.21169,-15.48498 34.38347,-1.42032 2.77825,5.44846 2.29991,13.26644 -1.27392,20.82088 -1.66315,3.51559 -2.90029,6.50969 -2.74921,6.65355 0.15107,0.14385 7.02468,2.71852 15.27468,5.72147 8.25,3.00295 18.30962,6.87136 22.35471,8.59646 4.04509,1.7251 7.75759,3.13654 8.25,3.13654 0.49241,0 0.89529,-2.64966 0.89529,-5.88813 0,-7.25579 -4.08165,-21.7633 -8.09811,-28.78334 -11.85233,-20.71573 -36.44069,-32.87122 -59.54224,-29.43529 -15.05125,2.23859 -30.383,11.04217 -38.8528,22.30949 -6.17739,8.21775 -8.23322,12.40745 -10.56846,21.53816 C 152.9554,491.49431 152.30076,504 153.87788,504 c 0.48283,0 2.62033,-0.74248 4.75,-1.64996 z m 6.66231,-22.0362 c -0.41609,-1.08432 0.0183,-2.06588 1.21694,-2.75 1.02519,-0.58511 2.84458,-2.07634 4.04309,-3.31384 1.19852,-1.2375 2.97592,-2.25 3.94978,-2.25 0.97386,0 2.75126,1.0125 3.94978,2.25 1.19851,1.2375 3.0179,2.72873 4.04309,3.31384 1.19867,0.68412 1.63303,1.66568 1.21694,2.75 C 183.17262,481.71373 181.60903,482 174.5,482 c -7.10903,0 -8.67262,-0.28627 -9.20981,-1.68616 z m 75.05884,0.15332 C 239.64196,478.62459 246.08627,472 248.58576,472 c 0.9267,0 2.70661,1.0125 3.95538,2.25 1.24876,1.2375 3.0106,2.85149 3.91521,3.58664 1.28542,1.04464 1.38848,1.6454 0.47175,2.75 -1.73326,2.08844 -15.77063,1.98728 -16.57907,-0.11948 z m 83.01953,67.08824 c -7.23861,-1.63087 -11.8857,-3.85471 -12.74738,-6.1002 -1.33568,-3.48074 -0.65513,-13.27839 1.04008,-14.9736 1.95362,-1.95363 3.83775,-1.68247 14.33874,2.06356 14.19101,5.06239 27.52762,3.22298 30.63997,-4.2259 2.85627,-6.83604 -0.61971,-11.08099 -13.32233,-16.2695 -22.53303,-9.20386 -28.5897,-13.5303 -31.69353,-22.63954 -5.36647,-15.74971 2.53617,-31.90864 18.10298,-37.01612 10.47777,-3.43777 32.6005,-1.6856 40.00928,3.16882 1.99056,1.30426 2.26363,2.31801 2.26363,8.40343 0,5.894 -0.31107,7.13812 -2.09765,8.38949 -1.87051,1.31016 -2.70966,1.25254 -7.75,-0.53219 -7.84935,-2.77938 -21.49522,-3.55107 -26.40871,-1.49344 -6.12793,2.56619 -7.2939,9.2787 -2.50324,14.41122 1.15067,1.23279 5.71274,3.63769 10.13792,5.34422 24.41442,9.4152 33.11591,17.24502 34.35535,30.91384 1.14191,12.59315 -5.24484,23.08688 -17.53717,28.81438 -5.08067,2.36729 -7.04784,2.67956 -18.1965,2.88859 -7.85496,0.14727 -14.77847,-0.27898 -18.63144,-1.14706 z m 79.67861,0.19686 C 398.30781,546.16289 392.70192,540.28617 391.226,535.35998 390.43857,532.73179 390,524.24436 390,511.63398 V 492 h -3.4349 c -1.8892,0 -4.5892,-0.43886 -6,-0.97525 -2.38481,-0.9067 -2.5651,-1.42523 -2.5651,-7.37755 0,-7.44118 0.74828,-8.38227 7.01962,-8.82845 L 389.5,474.5 l 0.29368,-8.45016 c 0.16152,-4.64759 0.72787,-8.97335 1.25856,-9.61279 1.37392,-1.65547 13.50699,-2.74331 15.95926,-1.43089 1.75717,0.9404 1.9885,2.10491 1.9885,10.00997 0,10.26658 -0.52824,9.77235 10.93187,10.22809 6.08936,0.24216 6.47095,0.40269 7.16585,3.01451 0.40369,1.51731 0.43048,4.89231 0.0595,7.5 L 426.4828,490.5 417.9914,491 409.5,491.5 409.19283,505 c -0.36537,16.05763 0.37246,23.42243 2.56632,25.61629 1.26706,1.26706 2.76868,1.47951 6.96849,0.9859 C 426.76878,530.65711 428,531.70582 428,539.5 c 0,5.63848 -0.27686,6.58022 -2.25,7.65347 -3.01695,1.64099 -18.38628,2.04636 -22.70283,0.59879 z m 350.47199,-0.29938 c -8.23134,-3.1182 -14.46051,-11.9098 -14.49162,-20.45288 -0.0272,-7.48204 1.76264,-11.88542 6.93272,-17.0555 5.94896,-5.94896 11.68294,-7.87451 25.78974,-8.66057 11.14409,-0.62098 11.5345,-0.8993 8.76739,-6.2503 -2.90653,-5.62061 -14.08895,-6.41075 -26.26329,-1.85574 -5.3569,2.00427 -5.51284,2.00782 -7.35333,0.16732 -2.33034,-2.33034 -2.98206,-11.33741 -0.99369,-13.73324 2.55376,-3.0771 13.88273,-5.80837 24.09292,-5.80851 14.71115,-2e-4 22.71382,3.66451 27.72557,12.69654 l 2.77443,5 0.31117,26.96869 C 801.1688,549.46509 801.61182,548 791.88145,548 c -4.93075,0 -6.01301,-0.35179 -7.70679,-2.50508 l -1.9705,-2.50508 -5.29125,2.7452 c -6.43505,3.33862 -17.05639,4.11856 -23.39375,1.71784 z m 18.53769,-14.45213 c 5.60217,-1.55629 8.8673,-5.66147 9.17968,-11.54141 L 781.5,516.5 l -8,0.0421 c -9.04319,0.0476 -12.48328,1.58913 -14.52019,6.50666 -1.74825,4.22064 0.22723,8.65664 4.39283,9.86425 4.21221,1.22112 4.59065,1.22495 8.68421,0.0878 z m -312.78339,14.08589 c -5.95302,-1.52112 -14.32751,-6.42162 -18.25469,-10.6821 -14.45118,-15.67768 -13.73449,-38.9257 1.64851,-53.47431 7.80316,-7.37989 14.67147,-10.2157 24.89897,-10.28033 7.54377,-0.0477 8.86822,0.26068 15.76929,3.67137 11.50374,5.68546 18.24531,14.40945 20.89427,27.03845 1.46581,6.98832 -0.0863,17.45007 -3.62481,24.43307 -3.04998,6.01886 -12.14079,14.63374 -18.31424,17.35547 -5.25071,2.31492 -17.50496,3.34689 -23.0173,1.93838 z M 515,547.35868 c -3.85732,-1.514 -4,-2.81519 -4,-36.47838 0,-28.42798 0.20686,-32.9443 1.57143,-34.30887 1.12248,-1.12248 3.52705,-1.57143 8.41659,-1.57143 6.30695,0 7.0019,0.21516 8.83854,2.73646 1.946,2.67144 2.04148,2.69294 4.01721,0.90492 4.64283,-4.20169 15.63698,-6.01778 18.5848,-3.06995 1.7584,1.75839 2.21324,12.86581 0.62935,15.36909 -0.55815,0.88214 -3.49923,1.70836 -7.5875,2.13151 -7.11113,0.73603 -11.05099,2.83172 -13.20568,7.02437 -0.86168,1.67669 -1.24435,8.75455 -1.26531,23.4036 -0.0165,11.55 -0.44236,21.65171 -0.94628,22.44825 -0.95483,1.50925 -12.13297,2.55661 -15.05315,1.41043 z M 632.22251,546.4433 C 630.00033,544.88682 630,544.88163 630,511.06574 c 0,-27.85517 0.24827,-34.0269 1.4075,-34.98897 0.8699,-0.72195 4.17199,-1.05519 8.64523,-0.87245 6.02239,0.24603 7.42325,0.63152 8.3425,2.29568 0.60762,1.1 1.21451,2.18474 1.34864,2.41054 0.13413,0.22579 1.03413,-0.28244 2,-1.12942 4.11666,-3.60988 8.80019,-5.15468 15.75613,-5.19695 7.71696,-0.0469 11.75379,1.50989 17.1273,6.60503 l 3.1273,2.96529 2.48842,-2.48842 c 11.59002,-11.59002 32.24936,-9.189 39.48129,4.5885 l 2.75337,5.24543 0.3466,26.82685 C 733.23404,549.0423 733.55239,548 723.4558,548 c -10.66306,0 -10.36157,0.78567 -10.68273,-27.83821 L 712.5,495.82358 l -2.80576,-2.41179 c -4.98194,-4.28239 -13.00962,-2.39847 -16.42731,3.85514 -1.5118,2.76624 -1.80996,6.48187 -2.06497,25.73307 -0.3436,25.93976 0.0211,25 -9.70196,25 -9.75977,0 -9.36068,1.06797 -9.71612,-26 -0.33646,-25.62194 -0.78969,-27.93134 -5.89693,-30.04683 -4.35471,-1.80378 -9.27258,-0.41692 -12.81056,3.61261 L 650,499.06959 v 22.89378 c 0,19.47919 -0.23438,23.12815 -1.57143,24.4652 -2.145,2.145 -13.15039,2.155 -16.20606,0.0147 z"
         id="path15" />
      <path
         style="fill:#5da7b3"
         d="m 561.25,574.96884 c -1.62457,-0.653 -2.30092,-1.81675 -2.43319,-4.18662 -0.4993,-8.94638 0.14236,-9.74407 7.85646,-9.76691 4.10824,-0.0122 5.81409,-0.55452 8.28592,-2.63443 3.70109,-3.11426 6.15884,-7.53627 6.23339,-11.21519 0.0488,-2.40672 -4.93983,-16.21674 -19.28405,-53.38426 C 559.20884,486.78621 557,480.15728 557,479.05048 c 0,-2.52535 2.7077,-3.25908 10.54167,-2.8566 L 573.5,476.5 l 8.10129,23.45043 c 4.45571,12.89774 8.57691,23.60897 9.15823,23.80274 0.59448,0.19816 4.38289,-9.90783 8.65838,-23.09715 4.919,-15.17449 8.15621,-23.66235 9.17355,-24.05274 0.86467,-0.3318 4.47444,-0.60328 8.02172,-0.60328 4.89432,0 6.59258,0.37261 7.04255,1.54519 0.70766,1.84415 -25.30282,71.70834 -30.69798,82.45481 -4.19198,8.34988 -7.64588,12.13705 -13.17562,14.44695 -4.04129,1.68815 -14.87182,1.99315 -18.53212,0.52189 z M 813.28518,573.25 C 812.85333,572.2875 812.725,550.125 813,524 l 0.5,-47.5 6.33731,-0.29998 c 6.73314,-0.31872 9.16269,0.72134 9.16269,3.92242 0,2.50387 0.72613,2.36559 5.86519,-1.11693 5.20857,-3.52963 9.36888,-4.44342 17.05638,-3.74634 10.4452,0.94714 17.76633,6.58525 22.97732,17.6952 2.34888,5.00788 2.60111,6.70925 2.60111,17.54563 0,11.36387 -0.1655,12.34927 -3.12193,18.5886 -5.63992,11.90261 -15.46343,18.92546 -26.37807,18.85774 -6.10454,-0.0379 -12.11766,-1.83786 -15.07233,-4.51179 -1.06696,-0.96559 -2.27467,-1.42119 -2.6838,-1.01244 -0.40913,0.40875 -0.8166,7.43462 -0.90549,15.61304 -0.0889,8.17841 -0.45296,15.34122 -0.80902,15.91735 -0.35607,0.57612 -3.755,1.0475 -7.55319,1.0475 -5.61117,0 -7.053,-0.32807 -7.69099,-1.75 z m 39.1712,-42.12967 c 1.62601,-0.92481 4.07851,-3.86199 5.45,-6.52705 3.49366,-6.78884 3.56706,-18.91811 0.15711,-25.96213 -3.21393,-6.63908 -6.97791,-8.84314 -14.29979,-8.37347 -6.62633,0.42505 -9.88345,2.76342 -12.87366,9.24232 -2.10357,4.55783 -2.54693,16.59449 -0.83791,22.74835 2.75598,9.92379 13.24921,14.07906 22.40425,8.87198 z m -657.25467,31.85751 c -22.45879,-5.88384 -41.01806,-24.89519 -46.805,-47.94513 -2.29041,-9.12291 -1.49333,-28.03985 1.5604,-37.03271 5.34284,-15.734 18.37782,-30.61739 33.22421,-37.93554 18.86122,-9.29716 38.75003,-9.343 57.31868,-0.13213 18.11526,8.98598 30.12485,23.74283 35.61813,43.766 4.03675,14.71408 1.39706,34.61494 -6.38109,48.10755 -8.87861,15.40159 -23.09381,26.23772 -40.88831,31.16882 -9.54202,2.64423 -23.56092,2.64554 -33.64702,0.003 z m -36.57383,-60.6278 c 2.12966,-0.90748 11.97212,-4.72502 21.87212,-8.48342 11.57136,-4.39292 17.89003,-7.28581 17.69208,-8.10004 -0.16936,-0.69662 -1.40686,-4.04333 -2.75,-7.43714 -2.89548,-7.31619 -3.05913,-12.37449 -0.5771,-17.83802 6.6488,-14.63556 27.21169,-15.48498 34.38347,-1.42032 2.77825,5.44846 2.29991,13.26644 -1.27392,20.82088 -1.66315,3.51559 -2.90029,6.50969 -2.74921,6.65355 0.15107,0.14385 7.02468,2.71852 15.27468,5.72147 8.25,3.00295 18.30962,6.87136 22.35471,8.59646 4.04509,1.7251 7.75759,3.13654 8.25,3.13654 0.49241,0 0.89529,-2.64966 0.89529,-5.88813 0,-7.25579 -4.08165,-21.7633 -8.09811,-28.78334 -11.85233,-20.71573 -36.44069,-32.87122 -59.54224,-29.43529 -15.05125,2.23859 -30.383,11.04217 -38.8528,22.30949 -6.17739,8.21775 -8.23322,12.40745 -10.56846,21.53816 C 152.9554,491.49431 152.30076,504 153.87788,504 c 0.48283,0 2.62033,-0.74248 4.75,-1.64996 z m 6.66231,-22.0362 c -0.41609,-1.08432 0.0183,-2.06588 1.21694,-2.75 1.02519,-0.58511 2.84458,-2.07634 4.04309,-3.31384 1.19852,-1.2375 2.97592,-2.25 3.94978,-2.25 0.97386,0 2.75126,1.0125 3.94978,2.25 1.19851,1.2375 3.0179,2.72873 4.04309,3.31384 1.19867,0.68412 1.63303,1.66568 1.21694,2.75 C 183.17262,481.71373 181.60903,482 174.5,482 c -7.10903,0 -8.67262,-0.28627 -9.20981,-1.68616 z m 75.05884,0.15332 C 239.64196,478.62459 246.08627,472 248.58576,472 c 0.9267,0 2.70661,1.0125 3.95538,2.25 1.24876,1.2375 3.0106,2.85149 3.91521,3.58664 1.28542,1.04464 1.38848,1.6454 0.47175,2.75 -1.73326,2.08844 -15.77063,1.98728 -16.57907,-0.11948 z m 84.22236,65.94382 c -10.55233,-2.35205 -12.32139,-3.56108 -13.13337,-8.97571 -0.37756,-2.51777 -0.26984,-6.0082 0.23939,-7.75651 1.13403,-3.89343 2.7803,-3.92428 13.03499,-0.24423 14.38887,5.16366 25.58147,4.41162 31.30154,-2.10319 6.59443,-7.51064 2.63476,-14.46762 -11.51394,-20.2295 -24.16089,-9.83921 -29.11747,-13.5383 -32.15878,-24.00001 -4.2846,-14.73853 3.67257,-29.29216 18.44644,-33.73844 9.31197,-2.80249 31.66987,-0.91453 37.9574,3.20523 1.9149,1.25468 2.25494,2.36034 2.25494,7.33199 0,8.38093 -1.06242,8.97685 -10.77061,6.04127 -10.06006,-3.04197 -21.55076,-3.26644 -25.79345,-0.50386 -4.24306,2.76282 -5.3683,4.5907 -5.40414,8.77865 -0.0428,5.00512 4.57066,9.5085 13.0386,12.7274 16.21056,6.16209 26.36191,12.2846 30.52406,18.40975 6.77675,9.97289 4.84392,25.66416 -4.13204,33.54507 -7.16801,6.29353 -13.54551,8.44797 -25.96242,8.77062 -7.24871,0.18835 -13.36284,-0.24084 -17.92861,-1.25853 z m 80.14984,0.23232 c -2.62833,-0.7418 -5.94882,-2.42751 -7.37888,-3.74602 -5.1157,-4.71665 -5.72922,-7.72237 -6.30665,-30.89728 L 390.5,490.5 385,490 l -5.5,-0.5 -0.30507,-5.33118 c -0.17,-2.97072 0.19735,-5.93656 0.82967,-6.69846 0.62411,-0.75201 3.23639,-1.50298 5.80507,-1.66882 L 390.5,475.5 l 0.29368,-8.45016 c 0.16152,-4.64759 0.7943,-9.05339 1.40618,-9.79066 0.78516,-0.94605 3.19988,-1.25497 8.20633,-1.04984 L 407.5,456.5 l 0.5,9.5 0.5,9.5 8.5,0.5 8.5,0.5 v 6.5 6.5 l -8.5,0.5 -8.5,0.5 v 19.147 c 0,23.30855 -0.0898,23.11384 10.86749,23.56156 L 426.5,533.5 l 0.29809,5.68908 c 0.25802,4.9244 0.0159,5.84008 -1.80096,6.81246 -3.325,1.77948 -14.942,2.14718 -20.2759,0.64176 z m 351.86806,0.23849 c -12.28049,-2.88057 -18.85,-14.59338 -15.20934,-27.11682 C 744.62554,508.60052 754.55375,503 771.09971,503 c 4.80519,0 9.44852,-0.27314 10.3185,-0.60699 2.60376,-0.99916 1.91059,-5.99346 -1.33618,-9.62723 -2.82466,-3.16134 -3.16844,-3.26578 -10.75,-3.26578 -4.84281,0 -10.20535,0.72468 -14.05035,1.89874 -7.8177,2.38709 -9.28168,1.51989 -9.28168,-5.49813 0,-5.83118 1.37206,-7.01256 11.01295,-9.48244 9.13355,-2.33991 23.66449,-1.57436 30.3485,1.59888 5.91635,2.80879 10.10588,8.27195 11.56655,15.08281 0.58983,2.75031 1.072,15.5305 1.072,28.41418 0,26.79787 0.39673,25.69619 -9.00161,24.99648 -5.07202,-0.37762 -6.94954,-1.52314 -6.98308,-4.26052 -0.0224,-1.8316 -1.81129,-1.53146 -5.18336,0.86966 -6.02516,4.29029 -14.1397,5.66279 -22.24266,3.76213 z m 18.39078,-13.63334 C 779.82382,530.81486 783,525.72139 783,520.3873 c 0,-5.45996 -1.96152,-6.69746 -9.24889,-5.83504 -8.0176,0.94883 -11.44674,2.2973 -14.21838,5.59122 -7.68047,9.12771 3.86623,18.92352 15.44734,13.10497 z M 459.23015,545.4496 c -2.89842,-0.78032 -6.66238,-2.13887 -8.36436,-3.019 -5.37359,-2.7788 -11.93959,-9.64142 -15.20696,-15.89398 -2.92597,-5.59923 -3.1547,-6.76118 -3.15668,-16.03662 -0.002,-9.02752 0.28174,-10.57819 2.91706,-15.94553 3.55834,-7.24723 9.62433,-13.49409 16.74329,-17.24251 4.81848,-2.53714 6.3099,-2.8105 15.3375,-2.81119 9.09735,-7e-4 10.52761,0.26631 15.84508,2.95805 6.6141,3.3481 13.3738,10.30284 16.82508,17.31054 2.01227,4.08583 2.32964,6.23 2.32834,15.73064 -10e-4,9.65944 -0.29173,11.54841 -2.38307,15.5 -5.46125,10.31906 -12.64561,16.37023 -23.04693,19.41174 -6.54046,1.91254 -10.84122,1.92166 -17.83835,0.0379 z M 638.5,546.20656 c -3.19805,-0.18769 -5.45049,-0.88725 -6.25,-1.94113 -1.75966,-2.31949 -1.80662,-65.30881 -0.05,-67.06543 0.67104,-0.67104 3.88889,-1.2 7.3,-1.2 6.31462,0 8.5,1.07984 8.5,4.2 0,2.21915 2.30055,2.34771 4.06066,0.22691 4.60026,-5.54298 18.0515,-7.45988 25.51103,-3.63552 2.16057,1.10769 5.01925,3.18277 6.35262,4.61129 3.00753,3.22216 4.11812,3.24551 7.02826,0.1478 3.97768,-4.23404 10.29514,-6.55285 17.78653,-6.52852 8.18263,0.0266 13.93889,2.36435 17.5295,7.11919 4.41394,5.84512 4.85127,9.45152 4.53037,37.35885 l -0.29897,26 -6.90087,0.29913 c -4.07462,0.17662 -7.35102,-0.14989 -8,-0.79724 -0.71027,-0.70848 -1.27603,-9.77888 -1.59913,-25.63774 l -0.5,-24.54137 -2.80576,-2.41139 c -5.53977,-4.7611 -14.78603,-2.34971 -18.96678,4.94647 -0.82707,1.44339 -1.39056,9.6446 -1.72746,25.14214 l -0.5,23 h -8 -8 l -0.5,-24 c -0.34628,-16.62153 -0.88667,-24.67596 -1.75774,-26.19872 -4.60642,-8.05272 -16.85764,-6.50289 -21.49071,2.71865 -1.50694,2.9994 -1.74866,6.53717 -1.75,25.61349 l -0.002,22.13343 -2.25,0.36657 c -1.2375,0.20162 -4.5,0.23453 -7.25,0.0731 z m -124.87783,-1.00888 c -0.78712,-1.27359 -0.98549,-66.8008 -0.20604,-68.06198 0.77588,-1.2554 12.4064,-1.5592 14.1799,-0.37039 0.60281,0.40408 1.39111,1.94122 1.75178,3.41587 l 0.65575,2.68118 5.09871,-3.43118 c 6.01731,-4.04935 15.15366,-5.20226 17.0887,-2.15642 0.98699,1.55356 1.02002,10.86395 0.0437,12.32384 -0.40408,0.60423 -3.36095,1.40022 -6.57082,1.76886 -7.28144,0.83624 -11.19496,2.81554 -13.70435,6.93109 -1.7625,2.89058 -1.95373,5.1435 -1.96944,23.20145 -0.01,11 -0.28873,21.0125 -0.62037,22.25 -0.55571,2.07365 -1.17703,2.25 -7.92732,2.25 -4.0284,0 -7.54749,-0.36104 -7.82022,-0.80232 z"
         id="path14" />
      <path
         style="fill:#ad6659"
         d="m 561.25,574.96884 c -1.62457,-0.653 -2.30092,-1.81675 -2.43319,-4.18662 -0.4993,-8.94638 0.14236,-9.74407 7.85646,-9.76691 4.10824,-0.0122 5.81409,-0.55452 8.28592,-2.63443 3.70109,-3.11426 6.15884,-7.53627 6.23339,-11.21519 0.0488,-2.40672 -4.93983,-16.21674 -19.28405,-53.38426 C 559.20884,486.78621 557,480.15728 557,479.05048 c 0,-2.52535 2.7077,-3.25908 10.54167,-2.8566 L 573.5,476.5 l 8.10129,23.45043 c 4.45571,12.89774 8.57691,23.60897 9.15823,23.80274 0.59448,0.19816 4.38289,-9.90783 8.65838,-23.09715 4.919,-15.17449 8.15621,-23.66235 9.17355,-24.05274 0.86467,-0.3318 4.47444,-0.60328 8.02172,-0.60328 4.89432,0 6.59258,0.37261 7.04255,1.54519 0.70766,1.84415 -25.30282,71.70834 -30.69798,82.45481 -4.19198,8.34988 -7.64588,12.13705 -13.17562,14.44695 -4.04129,1.68815 -14.87182,1.99315 -18.53212,0.52189 z M 813.28518,573.25 C 812.85333,572.2875 812.725,550.125 813,524 l 0.5,-47.5 6.33731,-0.29998 c 6.73314,-0.31872 9.16269,0.72134 9.16269,3.92242 0,2.50387 0.72613,2.36559 5.86519,-1.11693 5.20857,-3.52963 9.36888,-4.44342 17.05638,-3.74634 10.4452,0.94714 17.76633,6.58525 22.97732,17.6952 2.34888,5.00788 2.60111,6.70925 2.60111,17.54563 0,11.36387 -0.1655,12.34927 -3.12193,18.5886 -5.63992,11.90261 -15.46343,18.92546 -26.37807,18.85774 -6.10454,-0.0379 -12.11766,-1.83786 -15.07233,-4.51179 -1.06696,-0.96559 -2.27467,-1.42119 -2.6838,-1.01244 -0.40913,0.40875 -0.8166,7.43462 -0.90549,15.61304 -0.0889,8.17841 -0.45296,15.34122 -0.80902,15.91735 -0.35607,0.57612 -3.755,1.0475 -7.55319,1.0475 -5.61117,0 -7.053,-0.32807 -7.69099,-1.75 z m 39.1712,-42.12967 c 1.62601,-0.92481 4.07851,-3.86199 5.45,-6.52705 3.49366,-6.78884 3.56706,-18.91811 0.15711,-25.96213 -3.21393,-6.63908 -6.97791,-8.84314 -14.29979,-8.37347 -6.62633,0.42505 -9.88345,2.76342 -12.87366,9.24232 -2.10357,4.55783 -2.54693,16.59449 -0.83791,22.74835 2.75598,9.92379 13.24921,14.07906 22.40425,8.87198 z m -657.25467,31.85751 c -22.45879,-5.88384 -41.01806,-24.89519 -46.805,-47.94513 -2.29041,-9.12291 -1.49333,-28.03985 1.5604,-37.03271 5.34284,-15.734 18.37782,-30.61739 33.22421,-37.93554 18.86122,-9.29716 38.75003,-9.343 57.31868,-0.13213 18.11526,8.98598 30.12485,23.74283 35.61813,43.766 4.03675,14.71408 1.39706,34.61494 -6.38109,48.10755 -8.87861,15.40159 -23.09381,26.23772 -40.88831,31.16882 -9.54202,2.64423 -23.56092,2.64554 -33.64702,0.003 z M 229.5,555.87785 c 5.54072,-1.88214 7,-2.79479 7,-4.37785 0,-2.91427 -5.22191,-5.12312 -15.31671,-6.47893 -16.38509,-2.20064 -21.25338,-4.46783 -22.79661,-10.61655 -1.60371,-6.38967 3.99941,-10.92208 16.73033,-13.53331 11.38154,-2.33446 13.24701,-3.69633 9.21231,-6.72536 -4.88924,-3.67056 -5.2743,-4.12566 -4.71776,-5.57597 0.93638,-2.44018 3.36445,-2.62277 7.41285,-0.55743 4.56239,2.32756 5.97559,4.53475 5.97559,9.33291 0,5.19597 -4.07305,8.1645 -13.21166,9.62896 -9.71002,1.55603 -13.80443,2.90403 -14.52511,4.7821 -1.15789,3.0174 3.13832,4.90202 13.94745,6.11831 14.42138,1.62277 17.66918,2.69636 22.04945,7.28865 2.31983,2.43212 4.23506,3.66172 5,3.21008 7.81198,-4.61244 17.17615,-16.1803 21.28649,-26.29591 3.70428,-9.11628 3.52167,-9.67791 -4.29662,-13.21483 -16.39505,-7.41695 -39.28611,-15.24016 -41.59131,-14.21417 -0.63728,0.28364 -2.52029,3.29125 -4.18448,6.68358 -4.12526,8.40907 -6.39359,8.44437 -10.78829,0.16787 -2.18884,-4.12221 -3.86486,-6.0967 -5.3553,-6.30899 -2.58599,-0.36832 -16.10796,4.21115 -33.33062,11.28805 l -12.5,5.13633 0.11759,3.7321 c 0.066,2.09415 1.78307,7.11595 3.91243,11.4423 7.13954,14.50586 21.65671,26.0897 38.46998,30.69674 7.96609,2.1828 22.52765,1.43916 31.5,-1.60868 z m -70.87212,-53.52781 c 2.12966,-0.90748 11.97212,-4.72502 21.87212,-8.48342 11.57136,-4.39292 17.89003,-7.28581 17.69208,-8.10004 -0.16936,-0.69662 -1.40686,-4.04333 -2.75,-7.43714 -2.89548,-7.31619 -3.05913,-12.37449 -0.5771,-17.83802 6.6488,-14.63556 27.21169,-15.48498 34.38347,-1.42032 2.77825,5.44846 2.29991,13.26644 -1.27392,20.82088 -1.66315,3.51559 -2.90029,6.50969 -2.74921,6.65355 0.15107,0.14385 7.02468,2.71852 15.27468,5.72147 8.25,3.00295 18.30962,6.87136 22.35471,8.59646 4.04509,1.7251 7.75759,3.13654 8.25,3.13654 0.49241,0 0.89529,-2.64966 0.89529,-5.88813 0,-7.25579 -4.08165,-21.7633 -8.09811,-28.78334 -11.85233,-20.71573 -36.44069,-32.87122 -59.54224,-29.43529 -15.05125,2.23859 -30.383,11.04217 -38.8528,22.30949 -6.17739,8.21775 -8.23322,12.40745 -10.56846,21.53816 C 152.9554,491.49431 152.30076,504 153.87788,504 c 0.48283,0 2.62033,-0.74248 4.75,-1.64996 z m 6.66231,-22.0362 c -0.41609,-1.08432 0.0183,-2.06588 1.21694,-2.75 1.02519,-0.58511 2.84458,-2.07634 4.04309,-3.31384 1.19852,-1.2375 2.97592,-2.25 3.94978,-2.25 0.97386,0 2.75126,1.0125 3.94978,2.25 1.19851,1.2375 3.0179,2.72873 4.04309,3.31384 1.19867,0.68412 1.63303,1.66568 1.21694,2.75 C 183.17262,481.71373 181.60903,482 174.5,482 c -7.10903,0 -8.67262,-0.28627 -9.20981,-1.68616 z m 75.05884,0.15332 C 239.64196,478.62459 246.08627,472 248.58576,472 c 0.9267,0 2.70661,1.0125 3.95538,2.25 1.24876,1.2375 3.0106,2.85149 3.91521,3.58664 1.28542,1.04464 1.38848,1.6454 0.47175,2.75 -1.73326,2.08844 -15.77063,1.98728 -16.57907,-0.11948 z m 84.22236,65.94382 c -10.55233,-2.35205 -12.32139,-3.56108 -13.13337,-8.97571 -0.37756,-2.51777 -0.26984,-6.0082 0.23939,-7.75651 1.13403,-3.89343 2.7803,-3.92428 13.03499,-0.24423 14.38887,5.16366 25.58147,4.41162 31.30154,-2.10319 6.59443,-7.51064 2.63476,-14.46762 -11.51394,-20.2295 -24.16089,-9.83921 -29.11747,-13.5383 -32.15878,-24.00001 -4.2846,-14.73853 3.67257,-29.29216 18.44644,-33.73844 9.31197,-2.80249 31.66987,-0.91453 37.9574,3.20523 1.9149,1.25468 2.25494,2.36034 2.25494,7.33199 0,8.38093 -1.06242,8.97685 -10.77061,6.04127 -10.06006,-3.04197 -21.55076,-3.26644 -25.79345,-0.50386 -4.24306,2.76282 -5.3683,4.5907 -5.40414,8.77865 -0.0428,5.00512 4.57066,9.5085 13.0386,12.7274 16.21056,6.16209 26.36191,12.2846 30.52406,18.40975 6.77675,9.97289 4.84392,25.66416 -4.13204,33.54507 -7.16801,6.29353 -13.54551,8.44797 -25.96242,8.77062 -7.24871,0.18835 -13.36284,-0.24084 -17.92861,-1.25853 z m 80.14984,0.23232 c -2.62833,-0.7418 -5.94882,-2.42751 -7.37888,-3.74602 -5.1157,-4.71665 -5.72922,-7.72237 -6.30665,-30.89728 L 390.5,490.5 385,490 l -5.5,-0.5 -0.30507,-5.33118 c -0.17,-2.97072 0.19735,-5.93656 0.82967,-6.69846 0.62411,-0.75201 3.23639,-1.50298 5.80507,-1.66882 L 390.5,475.5 l 0.29368,-8.45016 c 0.16152,-4.64759 0.7943,-9.05339 1.40618,-9.79066 0.78516,-0.94605 3.19988,-1.25497 8.20633,-1.04984 L 407.5,456.5 l 0.5,9.5 0.5,9.5 8.5,0.5 8.5,0.5 v 6.5 6.5 l -8.5,0.5 -8.5,0.5 v 19.147 c 0,23.30855 -0.0898,23.11384 10.86749,23.56156 L 426.5,533.5 l 0.29809,5.68908 c 0.25802,4.9244 0.0159,5.84008 -1.80096,6.81246 -3.325,1.77948 -14.942,2.14718 -20.2759,0.64176 z m 351.86806,0.23849 c -12.28049,-2.88057 -18.85,-14.59338 -15.20934,-27.11682 C 744.62554,508.60052 754.55375,503 771.09971,503 c 4.80519,0 9.44852,-0.27314 10.3185,-0.60699 2.60376,-0.99916 1.91059,-5.99346 -1.33618,-9.62723 -2.82466,-3.16134 -3.16844,-3.26578 -10.75,-3.26578 -4.84281,0 -10.20535,0.72468 -14.05035,1.89874 -7.8177,2.38709 -9.28168,1.51989 -9.28168,-5.49813 0,-5.83118 1.37206,-7.01256 11.01295,-9.48244 9.13355,-2.33991 23.66449,-1.57436 30.3485,1.59888 5.91635,2.80879 10.10588,8.27195 11.56655,15.08281 0.58983,2.75031 1.072,15.5305 1.072,28.41418 0,26.79787 0.39673,25.69619 -9.00161,24.99648 -5.07202,-0.37762 -6.94954,-1.52314 -6.98308,-4.26052 -0.0224,-1.8316 -1.81129,-1.53146 -5.18336,0.86966 -6.02516,4.29029 -14.1397,5.66279 -22.24266,3.76213 z m 18.39078,-13.63334 C 779.82382,530.81486 783,525.72139 783,520.3873 c 0,-5.45996 -1.96152,-6.69746 -9.24889,-5.83504 -8.0176,0.94883 -11.44674,2.2973 -14.21838,5.59122 -7.68047,9.12771 3.86623,18.92352 15.44734,13.10497 z M 459.23015,545.4496 c -2.89842,-0.78032 -6.66238,-2.13887 -8.36436,-3.019 -5.37359,-2.7788 -11.93959,-9.64142 -15.20696,-15.89398 -2.92597,-5.59923 -3.1547,-6.76118 -3.15668,-16.03662 -0.002,-9.02752 0.28174,-10.57819 2.91706,-15.94553 3.55834,-7.24723 9.62433,-13.49409 16.74329,-17.24251 4.81848,-2.53714 6.3099,-2.8105 15.3375,-2.81119 9.09735,-7e-4 10.52761,0.26631 15.84508,2.95805 6.6141,3.3481 13.3738,10.30284 16.82508,17.31054 2.01227,4.08583 2.32964,6.23 2.32834,15.73064 -10e-4,9.65944 -0.29173,11.54841 -2.38307,15.5 -5.46125,10.31906 -12.64561,16.37023 -23.04693,19.41174 -6.54046,1.91254 -10.84122,1.92166 -17.83835,0.0379 z m -12.45519,-36.8197 c 10.80216,-5.41326 18.7321,-7.95936 23.00488,-7.38626 2.08403,0.27953 8.67749,2.81406 14.65215,5.6323 5.97465,2.81823 11.30913,5.12406 11.8544,5.12406 1.99452,0 3.8e-4,-11.70245 -2.90323,-17.03734 -5.39942,-9.9205 -14.53944,-15.15232 -26.37235,-15.09573 -10.53731,0.0504 -20.64372,6.52833 -25.67492,16.45692 C 438.54312,501.83512 436.95393,512 438.88506,512 c 0.64068,0 4.19113,-1.51655 7.8899,-3.3701 z M 638.5,546.20656 c -3.19805,-0.18769 -5.45049,-0.88725 -6.25,-1.94113 -1.75966,-2.31949 -1.80662,-65.30881 -0.05,-67.06543 0.67104,-0.67104 3.88889,-1.2 7.3,-1.2 6.31462,0 8.5,1.07984 8.5,4.2 0,2.21915 2.30055,2.34771 4.06066,0.22691 4.60026,-5.54298 18.0515,-7.45988 25.51103,-3.63552 2.16057,1.10769 5.01925,3.18277 6.35262,4.61129 3.00753,3.22216 4.11812,3.24551 7.02826,0.1478 3.97768,-4.23404 10.29514,-6.55285 17.78653,-6.52852 8.18263,0.0266 13.93889,2.36435 17.5295,7.11919 4.41394,5.84512 4.85127,9.45152 4.53037,37.35885 l -0.29897,26 -6.90087,0.29913 c -4.07462,0.17662 -7.35102,-0.14989 -8,-0.79724 -0.71027,-0.70848 -1.27603,-9.77888 -1.59913,-25.63774 l -0.5,-24.54137 -2.80576,-2.41139 c -5.53977,-4.7611 -14.78603,-2.34971 -18.96678,4.94647 -0.82707,1.44339 -1.39056,9.6446 -1.72746,25.14214 l -0.5,23 h -8 -8 l -0.5,-24 c -0.34628,-16.62153 -0.88667,-24.67596 -1.75774,-26.19872 -4.60642,-8.05272 -16.85764,-6.50289 -21.49071,2.71865 -1.50694,2.9994 -1.74866,6.53717 -1.75,25.61349 l -0.002,22.13343 -2.25,0.36657 c -1.2375,0.20162 -4.5,0.23453 -7.25,0.0731 z m -124.87783,-1.00888 c -0.78712,-1.27359 -0.98549,-66.8008 -0.20604,-68.06198 0.77588,-1.2554 12.4064,-1.5592 14.1799,-0.37039 0.60281,0.40408 1.39111,1.94122 1.75178,3.41587 l 0.65575,2.68118 5.09871,-3.43118 c 6.01731,-4.04935 15.15366,-5.20226 17.0887,-2.15642 0.98699,1.55356 1.02002,10.86395 0.0437,12.32384 -0.40408,0.60423 -3.36095,1.40022 -6.57082,1.76886 -7.28144,0.83624 -11.19496,2.81554 -13.70435,6.93109 -1.7625,2.89058 -1.95373,5.1435 -1.96944,23.20145 -0.01,11 -0.28873,21.0125 -0.62037,22.25 -0.55571,2.07365 -1.17703,2.25 -7.92732,2.25 -4.0284,0 -7.54749,-0.36104 -7.82022,-0.80232 z"
         id="path13" />
      <path
         style="fill:#458b6e"
         d="m 561.25,574.96884 c -1.62457,-0.653 -2.30092,-1.81675 -2.43319,-4.18662 -0.4993,-8.94638 0.14236,-9.74407 7.85646,-9.76691 4.10824,-0.0122 5.81409,-0.55452 8.28592,-2.63443 3.70109,-3.11426 6.15884,-7.53627 6.23339,-11.21519 0.0488,-2.40672 -4.93983,-16.21674 -19.28405,-53.38426 C 559.20884,486.78621 557,480.15728 557,479.05048 c 0,-2.52535 2.7077,-3.25908 10.54167,-2.8566 L 573.5,476.5 l 8.10129,23.45043 c 4.45571,12.89774 8.57691,23.60897 9.15823,23.80274 0.59448,0.19816 4.38289,-9.90783 8.65838,-23.09715 4.919,-15.17449 8.15621,-23.66235 9.17355,-24.05274 0.86467,-0.3318 4.47444,-0.60328 8.02172,-0.60328 4.89432,0 6.59258,0.37261 7.04255,1.54519 0.70766,1.84415 -25.30282,71.70834 -30.69798,82.45481 -4.19198,8.34988 -7.64588,12.13705 -13.17562,14.44695 -4.04129,1.68815 -14.87182,1.99315 -18.53212,0.52189 z M 813.28518,573.25 C 812.85333,572.2875 812.725,550.125 813,524 l 0.5,-47.5 6.33731,-0.29998 c 6.73314,-0.31872 9.16269,0.72134 9.16269,3.92242 0,2.50387 0.72613,2.36559 5.86519,-1.11693 5.20857,-3.52963 9.36888,-4.44342 17.05638,-3.74634 10.4452,0.94714 17.76633,6.58525 22.97732,17.6952 2.34888,5.00788 2.60111,6.70925 2.60111,17.54563 0,11.36387 -0.1655,12.34927 -3.12193,18.5886 -5.63992,11.90261 -15.46343,18.92546 -26.37807,18.85774 -6.10454,-0.0379 -12.11766,-1.83786 -15.07233,-4.51179 -1.06696,-0.96559 -2.27467,-1.42119 -2.6838,-1.01244 -0.40913,0.40875 -0.8166,7.43462 -0.90549,15.61304 -0.0889,8.17841 -0.45296,15.34122 -0.80902,15.91735 -0.35607,0.57612 -3.755,1.0475 -7.55319,1.0475 -5.61117,0 -7.053,-0.32807 -7.69099,-1.75 z m 39.1712,-42.12967 c 1.62601,-0.92481 4.07851,-3.86199 5.45,-6.52705 3.49366,-6.78884 3.56706,-18.91811 0.15711,-25.96213 -3.21393,-6.63908 -6.97791,-8.84314 -14.29979,-8.37347 -6.62633,0.42505 -9.88345,2.76342 -12.87366,9.24232 -2.10357,4.55783 -2.54693,16.59449 -0.83791,22.74835 2.75598,9.92379 13.24921,14.07906 22.40425,8.87198 z m -657.25467,31.85751 c -22.45879,-5.88384 -41.01806,-24.89519 -46.805,-47.94513 -2.29041,-9.12291 -1.49333,-28.03985 1.5604,-37.03271 5.34284,-15.734 18.37782,-30.61739 33.22421,-37.93554 18.86122,-9.29716 38.75003,-9.343 57.31868,-0.13213 18.11526,8.98598 30.12485,23.74283 35.61813,43.766 4.03675,14.71408 1.39706,34.61494 -6.38109,48.10755 -8.87861,15.40159 -23.09381,26.23772 -40.88831,31.16882 -9.54202,2.64423 -23.56092,2.64554 -33.64702,0.003 z M 229.5,555.87785 c 5.54072,-1.88214 7,-2.79479 7,-4.37785 0,-2.91427 -5.22191,-5.12312 -15.31671,-6.47893 -16.38509,-2.20064 -21.25338,-4.46783 -22.79661,-10.61655 -1.60371,-6.38967 3.99941,-10.92208 16.73033,-13.53331 11.38154,-2.33446 13.24701,-3.69633 9.21231,-6.72536 -4.88924,-3.67056 -5.2743,-4.12566 -4.71776,-5.57597 0.93638,-2.44018 3.36445,-2.62277 7.41285,-0.55743 4.56239,2.32756 5.97559,4.53475 5.97559,9.33291 0,5.19597 -4.07305,8.1645 -13.21166,9.62896 -9.71002,1.55603 -13.80443,2.90403 -14.52511,4.7821 -1.15789,3.0174 3.13832,4.90202 13.94745,6.11831 14.42138,1.62277 17.66918,2.69636 22.04945,7.28865 2.31983,2.43212 4.23506,3.66172 5,3.21008 7.81198,-4.61244 17.17615,-16.1803 21.28649,-26.29591 3.70428,-9.11628 3.52167,-9.67791 -4.29662,-13.21483 -16.39505,-7.41695 -39.28611,-15.24016 -41.59131,-14.21417 -0.63728,0.28364 -2.52029,3.29125 -4.18448,6.68358 -4.12526,8.40907 -6.39359,8.44437 -10.78829,0.16787 -2.18884,-4.12221 -3.86486,-6.0967 -5.3553,-6.30899 -2.58599,-0.36832 -16.10796,4.21115 -33.33062,11.28805 l -12.5,5.13633 0.11759,3.7321 c 0.066,2.09415 1.78307,7.11595 3.91243,11.4423 7.13954,14.50586 21.65671,26.0897 38.46998,30.69674 7.96609,2.1828 22.52765,1.43916 31.5,-1.60868 z m -63.79731,-55.26141 c 5.93852,-2.41096 15.52231,-6.07503 21.29731,-8.14238 5.775,-2.06735 11.07571,-4.28652 11.77934,-4.9315 1.0298,-0.94394 0.75886,-2.30958 -1.38901,-7.00114 -3.48943,-7.62193 -4.10161,-13.39043 -2.00395,-18.88307 4.37586,-11.45804 18.51441,-15.54782 28.20285,-8.15809 6.78646,5.17629 8.22611,14.62135 3.81056,24.99974 -1.40401,3.3 -2.63083,6.65134 -2.72627,7.44743 -0.11786,0.98315 3.19447,2.6603 10.32648,5.22867 5.775,2.07968 16.22861,6.07289 23.23024,8.8738 7.00163,2.80091 13.18913,4.80895 13.75,4.46231 1.66001,-1.02594 1.16719,-10.60981 -0.98229,-19.10225 -6.40581,-25.30899 -25.97116,-43.07625 -51.11485,-46.41732 -35.49449,-4.71648 -67.78998,23.48144 -67.86832,59.25736 -0.0115,5.24241 0.30967,6.75 1.43791,6.75 0.79897,0 6.31147,-1.9726 12.25,-4.38356 z m 1.01103,-20.23606 C 165.79205,479.45872 167.88213,477 169.58726,477 c 0.73831,0 1.82404,-0.9 2.41274,-2 1.31975,-2.46597 3.45711,-2.56856 5.20851,-0.25 0.72706,0.9625 2.21508,2.24904 3.30671,2.85899 1.09163,0.60994 1.98478,1.50994 1.98478,2 0,1.05843 -14.77716,1.78051 -15.78628,0.77139 z M 241,479.5 c 0,-0.825 0.45298,-1.5 1.00661,-1.5 0.55364,0 1.98479,-1.125 3.18034,-2.5 1.19555,-1.375 2.71998,-2.5 3.38763,-2.5 1.87099,0 7.65908,5.81292 6.94253,6.97232 C 255.16778,480.53754 251.75852,481 247.94098,481 242.43789,481 241,480.68926 241,479.5 Z m -22.42031,-2.38547 C 228.20223,471.24672 223.77093,457 212.32327,457 c -3.81078,0 -5.05883,0.53556 -7.92327,3.4 -9.33616,9.33616 2.80672,23.64976 14.17969,16.71453 z m 105.9917,69.29645 c -10.55233,-2.35205 -12.32139,-3.56108 -13.13337,-8.97571 -0.37756,-2.51777 -0.26984,-6.0082 0.23939,-7.75651 1.13403,-3.89343 2.7803,-3.92428 13.03499,-0.24423 14.38887,5.16366 25.58147,4.41162 31.30154,-2.10319 6.59443,-7.51064 2.63476,-14.46762 -11.51394,-20.2295 -24.16089,-9.83921 -29.11747,-13.5383 -32.15878,-24.00001 -4.2846,-14.73853 3.67257,-29.29216 18.44644,-33.73844 9.31197,-2.80249 31.66987,-0.91453 37.9574,3.20523 1.9149,1.25468 2.25494,2.36034 2.25494,7.33199 0,8.38093 -1.06242,8.97685 -10.77061,6.04127 -10.06006,-3.04197 -21.55076,-3.26644 -25.79345,-0.50386 -4.24306,2.76282 -5.3683,4.5907 -5.40414,8.77865 -0.0428,5.00512 4.57066,9.5085 13.0386,12.7274 16.21056,6.16209 26.36191,12.2846 30.52406,18.40975 6.77675,9.97289 4.84392,25.66416 -4.13204,33.54507 -7.16801,6.29353 -13.54551,8.44797 -25.96242,8.77062 -7.24871,0.18835 -13.36284,-0.24084 -17.92861,-1.25853 z m 80.14984,0.23232 c -2.62833,-0.7418 -5.94882,-2.42751 -7.37888,-3.74602 -5.1157,-4.71665 -5.72922,-7.72237 -6.30665,-30.89728 L 390.5,490.5 385,490 l -5.5,-0.5 -0.30507,-5.33118 c -0.17,-2.97072 0.19735,-5.93656 0.82967,-6.69846 0.62411,-0.75201 3.23639,-1.50298 5.80507,-1.66882 L 390.5,475.5 l 0.29368,-8.45016 c 0.16152,-4.64759 0.7943,-9.05339 1.40618,-9.79066 0.78516,-0.94605 3.19988,-1.25497 8.20633,-1.04984 L 407.5,456.5 l 0.5,9.5 0.5,9.5 8.5,0.5 8.5,0.5 v 6.5 6.5 l -8.5,0.5 -8.5,0.5 v 19.147 c 0,23.30855 -0.0898,23.11384 10.86749,23.56156 L 426.5,533.5 l 0.29809,5.68908 c 0.25802,4.9244 0.0159,5.84008 -1.80096,6.81246 -3.325,1.77948 -14.942,2.14718 -20.2759,0.64176 z m 351.86806,0.23849 c -12.28049,-2.88057 -18.85,-14.59338 -15.20934,-27.11682 C 744.62554,508.60052 754.55375,503 771.09971,503 c 4.80519,0 9.44852,-0.27314 10.3185,-0.60699 2.60376,-0.99916 1.91059,-5.99346 -1.33618,-9.62723 -2.82466,-3.16134 -3.16844,-3.26578 -10.75,-3.26578 -4.84281,0 -10.20535,0.72468 -14.05035,1.89874 -7.8177,2.38709 -9.28168,1.51989 -9.28168,-5.49813 0,-5.83118 1.37206,-7.01256 11.01295,-9.48244 9.13355,-2.33991 23.66449,-1.57436 30.3485,1.59888 5.91635,2.80879 10.10588,8.27195 11.56655,15.08281 0.58983,2.75031 1.072,15.5305 1.072,28.41418 0,26.79787 0.39673,25.69619 -9.00161,24.99648 -5.07202,-0.37762 -6.94954,-1.52314 -6.98308,-4.26052 -0.0224,-1.8316 -1.81129,-1.53146 -5.18336,0.86966 -6.02516,4.29029 -14.1397,5.66279 -22.24266,3.76213 z m 18.39078,-13.63334 C 779.82382,530.81486 783,525.72139 783,520.3873 c 0,-5.45996 -1.96152,-6.69746 -9.24889,-5.83504 -8.0176,0.94883 -11.44674,2.2973 -14.21838,5.59122 -7.68047,9.12771 3.86623,18.92352 15.44734,13.10497 z M 459.23015,545.4496 c -2.89842,-0.78032 -6.66238,-2.13887 -8.36436,-3.019 -5.37359,-2.7788 -11.93959,-9.64142 -15.20696,-15.89398 -2.92597,-5.59923 -3.1547,-6.76118 -3.15668,-16.03662 -0.002,-9.02752 0.28174,-10.57819 2.91706,-15.94553 3.55834,-7.24723 9.62433,-13.49409 16.74329,-17.24251 4.81848,-2.53714 6.3099,-2.8105 15.3375,-2.81119 9.09735,-7e-4 10.52761,0.26631 15.84508,2.95805 6.6141,3.3481 13.3738,10.30284 16.82508,17.31054 2.01227,4.08583 2.32964,6.23 2.32834,15.73064 -10e-4,9.65944 -0.29173,11.54841 -2.38307,15.5 -5.46125,10.31906 -12.64561,16.37023 -23.04693,19.41174 -6.54046,1.91254 -10.84122,1.92166 -17.83835,0.0379 z m -12.45519,-36.8197 c 10.80216,-5.41326 18.7321,-7.95936 23.00488,-7.38626 2.08403,0.27953 8.67749,2.81406 14.65215,5.6323 5.97465,2.81823 11.30913,5.12406 11.8544,5.12406 1.99452,0 3.8e-4,-11.70245 -2.90323,-17.03734 -5.39942,-9.9205 -14.53944,-15.15232 -26.37235,-15.09573 -10.53731,0.0504 -20.64372,6.52833 -25.67492,16.45692 C 438.54312,501.83512 436.95393,512 438.88506,512 c 0.64068,0 4.19113,-1.51655 7.8899,-3.3701 z M 638.5,546.20656 c -3.19805,-0.18769 -5.45049,-0.88725 -6.25,-1.94113 -1.75966,-2.31949 -1.80662,-65.30881 -0.05,-67.06543 0.67104,-0.67104 3.88889,-1.2 7.3,-1.2 6.31462,0 8.5,1.07984 8.5,4.2 0,2.21915 2.30055,2.34771 4.06066,0.22691 4.60026,-5.54298 18.0515,-7.45988 25.51103,-3.63552 2.16057,1.10769 5.01925,3.18277 6.35262,4.61129 3.00753,3.22216 4.11812,3.24551 7.02826,0.1478 3.97768,-4.23404 10.29514,-6.55285 17.78653,-6.52852 8.18263,0.0266 13.93889,2.36435 17.5295,7.11919 4.41394,5.84512 4.85127,9.45152 4.53037,37.35885 l -0.29897,26 -6.90087,0.29913 c -4.07462,0.17662 -7.35102,-0.14989 -8,-0.79724 -0.71027,-0.70848 -1.27603,-9.77888 -1.59913,-25.63774 l -0.5,-24.54137 -2.80576,-2.41139 c -5.53977,-4.7611 -14.78603,-2.34971 -18.96678,4.94647 -0.82707,1.44339 -1.39056,9.6446 -1.72746,25.14214 l -0.5,23 h -8 -8 l -0.5,-24 c -0.34628,-16.62153 -0.88667,-24.67596 -1.75774,-26.19872 -4.60642,-8.05272 -16.85764,-6.50289 -21.49071,2.71865 -1.50694,2.9994 -1.74866,6.53717 -1.75,25.61349 l -0.002,22.13343 -2.25,0.36657 c -1.2375,0.20162 -4.5,0.23453 -7.25,0.0731 z m -124.87783,-1.00888 c -0.78712,-1.27359 -0.98549,-66.8008 -0.20604,-68.06198 0.77588,-1.2554 12.4064,-1.5592 14.1799,-0.37039 0.60281,0.40408 1.39111,1.94122 1.75178,3.41587 l 0.65575,2.68118 5.09871,-3.43118 c 6.01731,-4.04935 15.15366,-5.20226 17.0887,-2.15642 0.98699,1.55356 1.02002,10.86395 0.0437,12.32384 -0.40408,0.60423 -3.36095,1.40022 -6.57082,1.76886 -7.28144,0.83624 -11.19496,2.81554 -13.70435,6.93109 -1.7625,2.89058 -1.95373,5.1435 -1.96944,23.20145 -0.01,11 -0.28873,21.0125 -0.62037,22.25 -0.55571,2.07365 -1.17703,2.25 -7.92732,2.25 -4.0284,0 -7.54749,-0.36104 -7.82022,-0.80232 z"
         id="path12" />
      <path
         style="fill:#5a5f5e"
         d="m 561.25,574.96884 c -1.62457,-0.653 -2.30092,-1.81675 -2.43319,-4.18662 -0.4993,-8.94638 0.14236,-9.74407 7.85646,-9.76691 4.10824,-0.0122 5.81409,-0.55452 8.28592,-2.63443 3.70109,-3.11426 6.15884,-7.53627 6.23339,-11.21519 0.0488,-2.40672 -4.93983,-16.21674 -19.28405,-53.38426 C 559.20884,486.78621 557,480.15728 557,479.05048 c 0,-2.52535 2.7077,-3.25908 10.54167,-2.8566 L 573.5,476.5 l 8.10129,23.45043 c 4.45571,12.89774 8.57691,23.60897 9.15823,23.80274 0.59448,0.19816 4.38289,-9.90783 8.65838,-23.09715 4.919,-15.17449 8.15621,-23.66235 9.17355,-24.05274 0.86467,-0.3318 4.47444,-0.60328 8.02172,-0.60328 4.89432,0 6.59258,0.37261 7.04255,1.54519 0.70766,1.84415 -25.30282,71.70834 -30.69798,82.45481 -4.19198,8.34988 -7.64588,12.13705 -13.17562,14.44695 -4.04129,1.68815 -14.87182,1.99315 -18.53212,0.52189 z M 813.28518,573.25 C 812.85333,572.2875 812.725,550.125 813,524 l 0.5,-47.5 6.33731,-0.29998 c 6.73314,-0.31872 9.16269,0.72134 9.16269,3.92242 0,2.50387 0.72613,2.36559 5.86519,-1.11693 5.20857,-3.52963 9.36888,-4.44342 17.05638,-3.74634 10.4452,0.94714 17.76633,6.58525 22.97732,17.6952 2.34888,5.00788 2.60111,6.70925 2.60111,17.54563 0,11.36387 -0.1655,12.34927 -3.12193,18.5886 -5.63992,11.90261 -15.46343,18.92546 -26.37807,18.85774 -6.10454,-0.0379 -12.11766,-1.83786 -15.07233,-4.51179 -1.06696,-0.96559 -2.27467,-1.42119 -2.6838,-1.01244 -0.40913,0.40875 -0.8166,7.43462 -0.90549,15.61304 -0.0889,8.17841 -0.45296,15.34122 -0.80902,15.91735 -0.35607,0.57612 -3.755,1.0475 -7.55319,1.0475 -5.61117,0 -7.053,-0.32807 -7.69099,-1.75 z m 39.1712,-42.12967 c 1.62601,-0.92481 4.07851,-3.86199 5.45,-6.52705 3.49366,-6.78884 3.56706,-18.91811 0.15711,-25.96213 -3.21393,-6.63908 -6.97791,-8.84314 -14.29979,-8.37347 -6.62633,0.42505 -9.88345,2.76342 -12.87366,9.24232 -2.10357,4.55783 -2.54693,16.59449 -0.83791,22.74835 2.75598,9.92379 13.24921,14.07906 22.40425,8.87198 z m -657.25467,31.85751 c -22.45879,-5.88384 -41.01806,-24.89519 -46.805,-47.94513 -2.29041,-9.12291 -1.49333,-28.03985 1.5604,-37.03271 7.18799,-21.16773 27.10387,-39.01492 48.54289,-43.50065 34.3767,-7.19271 67.97457,14.04789 77.5754,49.04323 4.0817,14.87791 1.47788,34.70461 -6.33836,48.2633 -8.87861,15.40159 -23.09381,26.23772 -40.88831,31.16882 -9.54202,2.64423 -23.56092,2.64554 -33.64702,0.003 z M 229.5,557.35915 c 7.99798,-2.97389 8.87913,-3.71243 8.10574,-6.79389 -0.91253,-3.63578 -4.7431,-5.08793 -18.47261,-7.00287 -6.18405,-0.86252 -12.56461,-2.25128 -14.17901,-3.08612 -6.62291,-3.42484 -7.55108,-10.49088 -1.90605,-14.5105 1.59233,-1.13384 6.17043,-2.71967 10.17354,-3.52407 11.25797,-2.2622 11.54161,-2.34777 13.16597,-3.97214 1.98843,-1.98843 1.07805,-4.17741 -2.50876,-6.03223 C 222.29547,511.61855 221,510.2852 221,509.47432 c 0,-2.37387 4.53577,-1.73582 7.92327,1.11457 3.97615,3.34571 4.23617,8.34258 0.62218,11.95656 -1.35,1.35 -3.0375,2.47025 -3.75,2.48944 -4.34358,0.11698 -17.31547,3.07582 -19.36118,4.41622 -3.24581,2.12674 -3.10699,5.15662 0.31573,6.89111 1.5125,0.76647 7.25,1.92799 12.75,2.58114 14.06907,1.67079 19.22639,3.49859 21.6997,7.69053 1.17503,1.99153 2.79407,3.38611 3.93111,3.38611 1.07214,0 5.41577,-3.452 9.75177,-7.75 8.95626,-8.87778 15.38557,-20.2223 15.53315,-27.40828 l 0.0843,-4.10301 -11.46378,-4.9205 C 244.77341,499.69631 224.5305,492.75119 222.23716,493.19284 221.2905,493.37515 218.93378,496.43837 217,500 c -1.93378,3.56163 -4.1968,6.6068 -5.02894,6.76706 -0.99431,0.19148 -2.61674,-1.94692 -4.73268,-6.23784 C 204.33354,494.63853 203.72281,494 200.99331,494 c -3.09732,0 -20.05247,5.87163 -36.99331,12.81092 -9.02758,3.69787 -9.5159,4.05228 -9.81983,7.12698 -0.43195,4.36986 5.41816,16.51701 11.84353,24.59189 7.12747,8.9572 19.86003,16.96822 31.74896,19.97566 7.82102,1.97842 24.99219,1.35803 31.72734,-1.1463 z m -63.79731,-56.74271 c 5.93852,-2.41096 15.52231,-6.07503 21.29731,-8.14238 5.775,-2.06735 11.07571,-4.28652 11.77934,-4.9315 1.0298,-0.94394 0.75886,-2.30958 -1.38901,-7.00114 -3.48943,-7.62193 -4.10161,-13.39043 -2.00395,-18.88307 4.37586,-11.45804 18.51441,-15.54782 28.20285,-8.15809 6.78646,5.17629 8.22611,14.62135 3.81056,24.99974 -1.40401,3.3 -2.63083,6.65134 -2.72627,7.44743 -0.11786,0.98315 3.19447,2.6603 10.32648,5.22867 5.775,2.07968 16.22861,6.07289 23.23024,8.8738 7.00163,2.80091 13.18913,4.80895 13.75,4.46231 1.66001,-1.02594 1.16719,-10.60981 -0.98229,-19.10225 -6.40581,-25.30899 -25.97116,-43.07625 -51.11485,-46.41732 -35.49449,-4.71648 -67.78998,23.48144 -67.86832,59.25736 -0.0115,5.24241 0.30967,6.75 1.43791,6.75 0.79897,0 6.31147,-1.9726 12.25,-4.38356 z m 1.01103,-20.23606 C 165.79205,479.45872 167.88213,477 169.58726,477 c 0.73831,0 1.82404,-0.9 2.41274,-2 1.31975,-2.46597 3.45711,-2.56856 5.20851,-0.25 0.72706,0.9625 2.21508,2.24904 3.30671,2.85899 1.09163,0.60994 1.98478,1.50994 1.98478,2 0,1.05843 -14.77716,1.78051 -15.78628,0.77139 z M 241,479.5 c 0,-0.825 0.45298,-1.5 1.00661,-1.5 0.55364,0 1.98479,-1.125 3.18034,-2.5 1.19555,-1.375 2.71998,-2.5 3.38763,-2.5 1.87099,0 7.65908,5.81292 6.94253,6.97232 C 255.16778,480.53754 251.75852,481 247.94098,481 242.43789,481 241,480.68926 241,479.5 Z m -22.42031,-2.38547 C 228.20223,471.24672 223.77093,457 212.32327,457 c -3.81078,0 -5.05883,0.53556 -7.92327,3.4 -9.33616,9.33616 2.80672,23.64976 14.17969,16.71453 z m 105.9917,69.29645 c -10.55233,-2.35205 -12.32139,-3.56108 -13.13337,-8.97571 -0.37756,-2.51777 -0.26984,-6.0082 0.23939,-7.75651 1.13403,-3.89343 2.7803,-3.92428 13.03499,-0.24423 14.38887,5.16366 25.58147,4.41162 31.30154,-2.10319 6.59443,-7.51064 2.63476,-14.46762 -11.51394,-20.2295 -24.16089,-9.83921 -29.11747,-13.5383 -32.15878,-24.00001 -4.2846,-14.73853 3.67257,-29.29216 18.44644,-33.73844 9.31197,-2.80249 31.66987,-0.91453 37.9574,3.20523 1.9149,1.25468 2.25494,2.36034 2.25494,7.33199 0,8.38093 -1.06242,8.97685 -10.77061,6.04127 -10.06006,-3.04197 -21.55076,-3.26644 -25.79345,-0.50386 -4.24306,2.76282 -5.3683,4.5907 -5.40414,8.77865 -0.0428,5.00512 4.57066,9.5085 13.0386,12.7274 16.21056,6.16209 26.36191,12.2846 30.52406,18.40975 6.77675,9.97289 4.84392,25.66416 -4.13204,33.54507 -7.16801,6.29353 -13.54551,8.44797 -25.96242,8.77062 -7.24871,0.18835 -13.36284,-0.24084 -17.92861,-1.25853 z m 80.14984,0.23232 c -2.62833,-0.7418 -5.94882,-2.42751 -7.37888,-3.74602 -5.1157,-4.71665 -5.72922,-7.72237 -6.30665,-30.89728 L 390.5,490.5 385,490 l -5.5,-0.5 -0.30507,-5.33118 c -0.17,-2.97072 0.19735,-5.93656 0.82967,-6.69846 0.62411,-0.75201 3.23639,-1.50298 5.80507,-1.66882 L 390.5,475.5 l 0.29368,-8.45016 c 0.16152,-4.64759 0.7943,-9.05339 1.40618,-9.79066 0.78516,-0.94605 3.19988,-1.25497 8.20633,-1.04984 L 407.5,456.5 l 0.5,9.5 0.5,9.5 8.5,0.5 8.5,0.5 v 6.5 6.5 l -8.5,0.5 -8.5,0.5 v 19.147 c 0,23.30855 -0.0898,23.11384 10.86749,23.56156 L 426.5,533.5 l 0.29809,5.68908 c 0.25802,4.9244 0.0159,5.84008 -1.80096,6.81246 -3.325,1.77948 -14.942,2.14718 -20.2759,0.64176 z m 351.86806,0.23849 c -12.28049,-2.88057 -18.85,-14.59338 -15.20934,-27.11682 C 744.62554,508.60052 754.55375,503 771.09971,503 c 4.80519,0 9.44852,-0.27314 10.3185,-0.60699 2.60376,-0.99916 1.91059,-5.99346 -1.33618,-9.62723 -2.82466,-3.16134 -3.16844,-3.26578 -10.75,-3.26578 -4.84281,0 -10.20535,0.72468 -14.05035,1.89874 -7.8177,2.38709 -9.28168,1.51989 -9.28168,-5.49813 0,-5.83118 1.37206,-7.01256 11.01295,-9.48244 9.13355,-2.33991 23.66449,-1.57436 30.3485,1.59888 5.91635,2.80879 10.10588,8.27195 11.56655,15.08281 0.58983,2.75031 1.072,15.5305 1.072,28.41418 0,26.79787 0.39673,25.69619 -9.00161,24.99648 -5.07202,-0.37762 -6.94954,-1.52314 -6.98308,-4.26052 -0.0224,-1.8316 -1.81129,-1.53146 -5.18336,0.86966 -6.02516,4.29029 -14.1397,5.66279 -22.24266,3.76213 z m 18.39078,-13.63334 C 779.82382,530.81486 783,525.72139 783,520.3873 c 0,-5.45996 -1.96152,-6.69746 -9.24889,-5.83504 -8.0176,0.94883 -11.44674,2.2973 -14.21838,5.59122 -7.68047,9.12771 3.86623,18.92352 15.44734,13.10497 z M 459.23015,545.4496 c -2.89842,-0.78032 -6.66238,-2.13887 -8.36436,-3.019 -5.37359,-2.7788 -11.93959,-9.64142 -15.20696,-15.89398 -2.92597,-5.59923 -3.1547,-6.76118 -3.15668,-16.03662 -0.002,-9.02752 0.28174,-10.57819 2.91706,-15.94553 3.55834,-7.24723 9.62433,-13.49409 16.74329,-17.24251 4.82496,-2.54055 6.29775,-2.80939 15.3375,-2.79966 8.57141,0.009 10.71429,0.36075 15,2.46063 6.41247,3.14193 14.41761,11.13685 17.54948,17.52707 2.14955,4.3859 2.45034,6.35102 2.44902,16 -10e-4,9.65944 -0.29173,11.54841 -2.38307,15.5 -5.46125,10.31906 -12.64561,16.37023 -23.04693,19.41174 -6.54046,1.91254 -10.84122,1.92166 -17.83835,0.0379 z m 19.71602,-7.07571 c 5.31043,-2.21247 9.97881,-6.18614 13.159,-11.20078 4.54564,-7.16772 4.26316,-7.67134 -7.35517,-13.11332 -17.25919,-8.08415 -16.04456,-7.97978 -28.50515,-2.44947 -13.44953,5.96922 -16.47514,8.06685 -15.62453,10.83235 1.26063,4.09854 7.53513,11.45838 11.99871,14.07422 7.68661,4.50465 18.19338,5.24576 26.32714,1.857 z m -31.29574,-29.47594 c 19.11058,-8.85834 20.02307,-8.90002 36.06557,-1.64735 6.54326,2.95815 12.43396,5.19941 13.09042,4.98059 1.63018,-0.54339 1.49936,-5.85226 -0.29075,-11.79969 -2.08193,-6.91699 -7.9613,-14.13989 -14.51567,-17.83272 -4.96196,-2.79564 -6.33151,-3.09741 -14,-3.08475 -7.24875,0.012 -9.24537,0.40534 -13.56346,2.67232 -8.49472,4.45968 -14.37494,12.11439 -16.4628,21.43082 -0.94075,4.19783 -0.69443,9.38283 0.44574,9.38283 0.20976,0 4.36369,-1.84592 9.23095,-4.10205 z M 638.5,546.20656 c -3.19805,-0.18769 -5.45049,-0.88725 -6.25,-1.94113 -1.75966,-2.31949 -1.80662,-65.30881 -0.05,-67.06543 0.67104,-0.67104 3.88889,-1.2 7.3,-1.2 6.31462,0 8.5,1.07984 8.5,4.2 0,2.21915 2.30055,2.34771 4.06066,0.22691 4.60026,-5.54298 18.0515,-7.45988 25.51103,-3.63552 2.16057,1.10769 5.01925,3.18277 6.35262,4.61129 3.00753,3.22216 4.11812,3.24551 7.02826,0.1478 3.97768,-4.23404 10.29514,-6.55285 17.78653,-6.52852 8.18263,0.0266 13.93889,2.36435 17.5295,7.11919 4.41394,5.84512 4.85127,9.45152 4.53037,37.35885 l -0.29897,26 -6.90087,0.29913 c -4.07462,0.17662 -7.35102,-0.14989 -8,-0.79724 -0.71027,-0.70848 -1.27603,-9.77888 -1.59913,-25.63774 l -0.5,-24.54137 -2.80576,-2.41139 c -5.53977,-4.7611 -14.78603,-2.34971 -18.96678,4.94647 -0.82707,1.44339 -1.39056,9.6446 -1.72746,25.14214 l -0.5,23 h -8 -8 l -0.5,-24 c -0.34628,-16.62153 -0.88667,-24.67596 -1.75774,-26.19872 -4.60642,-8.05272 -16.85764,-6.50289 -21.49071,2.71865 -1.50694,2.9994 -1.74866,6.53717 -1.75,25.61349 l -0.002,22.13343 -2.25,0.36657 c -1.2375,0.20162 -4.5,0.23453 -7.25,0.0731 z m -124.87783,-1.00888 c -0.78712,-1.27359 -0.98549,-66.8008 -0.20604,-68.06198 0.77588,-1.2554 12.4064,-1.5592 14.1799,-0.37039 0.60281,0.40408 1.39111,1.94122 1.75178,3.41587 l 0.65575,2.68118 5.09871,-3.43118 c 6.01731,-4.04935 15.15366,-5.20226 17.0887,-2.15642 0.98699,1.55356 1.02002,10.86395 0.0437,12.32384 -0.40408,0.60423 -3.36095,1.40022 -6.57082,1.76886 -7.28144,0.83624 -11.19496,2.81554 -13.70435,6.93109 -1.7625,2.89058 -1.95373,5.1435 -1.96944,23.20145 -0.01,11 -0.28873,21.0125 -0.62037,22.25 -0.55571,2.07365 -1.17703,2.25 -7.92732,2.25 -4.0284,0 -7.54749,-0.36104 -7.82022,-0.80232 z"
         id="path11" />
      <path
         style="fill:#293237"
         d="m 561.68635,573.80283 c -1.41429,-1.06761 -1.74458,-2.46276 -1.5,-6.33596 L 560.5,562.5 l 5.06287,-0.12755 c 8.51601,-0.21455 13.62317,-4.13431 16.35204,-12.55022 1.29035,-3.9795 1.39682,-3.66165 -18.09447,-54.01869 -3.34153,-8.63306 -5.80724,-16.39556 -5.47936,-17.25 C 558.79638,477.36705 560.4888,477 565.50415,477 h 6.56692 l 1.80951,4.25 c 0.99523,2.3375 4.84973,13.38674 8.56555,24.55386 5.41686,16.27926 7.08288,20.24133 8.40495,19.98839 1.19067,-0.22779 3.87222,-6.98213 9.64892,-24.30385 l 8,-23.9884 6.39843,-0.30157 c 3.51914,-0.16586 6.81526,0.11526 7.32472,0.62472 0.56839,0.56839 -3.98987,14.01509 -11.79729,34.80157 -19.25987,51.27747 -21.09675,55.15466 -28.21451,59.55368 -4.42458,2.73454 -17.66613,3.78253 -20.525,1.62443 z M 814.2404,525.75 814.5,477.5 l 6.26538,-0.29812 6.26537,-0.29811 0.61379,3.06892 c 0.87362,4.36811 1.8405,4.53539 6.15833,1.06549 10.14458,-8.15241 24.79787,-6.63208 34.09197,3.53714 6.79694,7.43694 8.62164,13.08012 8.54431,26.42468 -0.0782,13.50045 -2.45547,20.14675 -9.85143,27.54271 -9.57465,9.57466 -24.09588,11.25616 -32.93999,3.81433 C 828.64749,538.14961 828,539.95705 828,558.12244 V 574 h -7.0096 -7.00961 z m 34.67633,8.27388 c 7.03372,-2.01724 11.80808,-9.27104 12.75147,-19.37365 1.53933,-16.4843 -8.42553,-28.94684 -20.53765,-25.68538 -9.27509,2.49752 -13.16826,9.23767 -13.05447,22.60087 0.10721,12.59083 2.44827,17.87789 9.51039,21.47837 4.32122,2.20308 6.42928,2.38537 11.33026,0.97979 z M 196.5,562.15533 c -9.53447,-2.49131 -13.66732,-4.38559 -21.02823,-9.63822 -12.76425,-9.10838 -22.6435,-23.60456 -26.08743,-38.27904 -2.14082,-9.12194 -1.42753,-26.26886 1.46586,-35.23807 6.25833,-19.40015 21.506,-34.63476 41.6594,-41.62371 6.8654,-2.38083 9.53914,-2.7692 18.9904,-2.75843 12.84331,0.0146 19.08768,1.5585 31,7.66448 10.77305,5.52202 20.53732,15.31523 26.14021,26.21766 6.78379,13.20031 7.85276,17.41964 7.85384,31 8.4e-4,10.56221 -0.33787,12.98787 -2.82696,20.24488 -6.79684,19.81635 -20.95037,34.01367 -40.83249,40.95878 -9.9385,3.47166 -26.12843,4.1185 -36.3346,1.45167 z m 33.403,-4.4705 c 4.07165,-1.42496 7.8412,-3.02903 8.37678,-3.56461 1.49899,-1.49899 -0.041,-5.91767 -2.66067,-7.63413 -2.19714,-1.43963 -11.93981,-3.43748 -24.5671,-5.03778 -4.06472,-0.51514 -6.15944,-1.40189 -8.25,-3.49246 -6.1683,-6.1683 -2.20744,-11.88341 10.04329,-14.4914 11.05072,-2.35252 14.0616,-3.41334 15.02725,-5.29454 1.23485,-2.40563 0.4458,-3.81004 -3.51647,-6.25885 -4.69128,-2.89938 -2.95582,-5.02946 1.82353,-2.23817 3.93853,2.30022 5.71355,5.43516 5.04819,8.91579 -0.70322,3.67866 -3.87517,5.28872 -13.48342,6.8441 -11.25002,1.82114 -14.69226,3.64267 -14.72907,7.79417 -0.0271,3.05582 4.68079,4.97854 15.70791,6.41516 5.88199,0.76631 12.45059,1.86615 14.59688,2.44408 4.005,1.07844 8.6799,5.15008 8.6799,7.55983 0,1.9596 2.76358,1.66321 6.60001,-0.70783 9.31827,-5.759 21.81004,-24.12093 23.13624,-34.00844 l 0.5263,-3.92389 -7.88127,-3.59298 c -11.35382,-5.17608 -32.09471,-12.98229 -37.61166,-14.15583 -5.87678,-1.25008 -7.06761,-0.48727 -10.61893,6.80215 -1.45788,2.99244 -3.24203,5.4408 -3.96477,5.4408 -0.72275,0 -2.74775,-2.7 -4.5,-6 -3.68526,-6.9404 -5.21901,-7.52839 -13.03535,-4.99732 -8.6982,2.81662 -39.06914,14.6854 -40.49612,15.82564 -3.24898,2.59612 2.99283,18.48913 11.18239,28.47277 7.95782,9.70115 20.39759,17.3999 33.4716,20.71499 8.5243,2.16145 21.94416,1.37111 31.09456,-1.83125 z m -40.05036,-65.21252 c 5.14395,-1.80267 9.82675,-3.7517 10.40621,-4.33116 0.7381,-0.7381 0.20742,-2.93815 -1.77229,-7.34736 -3.88501,-8.65273 -4.32048,-14.43968 -1.52166,-20.22127 3.00231,-6.20196 7.02165,-8.87159 14.1311,-9.38585 4.5881,-0.33187 6.51632,0.0295 9.69751,1.81743 8.56681,4.81482 10.40041,14.16204 5.13254,26.16439 -2.9405,6.69966 -3.23302,9.83151 -0.91828,9.83151 1.33956,0 22.16389,7.70774 35.62126,13.18456 5.5732,2.26815 10.8581,3.84249 11.75,3.50024 2.27503,-0.87301 2.1299,-11.09355 -0.28979,-20.4089 -5.87088,-22.60174 -21.77757,-39.33043 -43.63195,-45.88668 -8.05816,-2.41742 -23.82797,-2.41974 -31.95729,-0.005 -26.26946,7.80408 -43.7369,29.41039 -45.24302,55.96326 -0.41498,7.31606 -0.23626,10.04699 0.69516,10.62264 0.73263,0.45279 6.92599,-1.5102 14.9008,-4.72283 7.50588,-3.02373 17.85575,-6.9726 22.9997,-8.77528 z M 168,479 c 0,-0.55 0.94213,-1 2.09362,-1 1.25262,0 2.30371,-0.8034 2.61663,-2 0.28766,-1.1 1.09304,-2 1.78975,-2 0.69671,0 1.50209,0.9 1.78975,2 0.31292,1.1966 1.36401,2 2.61663,2 1.15149,0 2.09362,0.45 2.09362,1 0,0.5641 -2.83333,1 -6.5,1 -3.66667,0 -6.5,-0.4359 -6.5,-1 z m 74,0.47525 c 0,-0.28861 1.125,-0.95248 2.5,-1.47525 1.375,-0.52277 2.5,-1.63664 2.5,-2.47525 0,-2.20102 2.74206,-1.87522 4,0.47525 0.5887,1.1 1.72953,2 2.53518,2 0.80565,0 1.46482,0.45 1.46482,1 0,0.5641 -2.83333,1 -6.5,1 -3.575,0 -6.5,-0.23614 -6.5,-0.52475 z m -23.90612,-1.0238 c 5.96977,-3.08708 8.45936,-10.54714 5.45723,-16.35261 -6.26777,-12.12053 -25.40164,-5.88972 -23.21887,7.56107 1.34419,8.2833 10.23472,12.68387 17.76164,8.79154 z m 108.28735,67.13727 c -3.91532,-0.74458 -8.41532,-1.97342 -10,-2.73075 -2.70158,-1.29111 -2.89969,-1.79809 -3.17723,-8.1312 -0.35011,-7.98875 0.62952,-8.87267 6.50903,-5.87317 5.73337,2.92495 15.25383,5.14948 21.93131,5.12444 13.54553,-0.0508 21.83547,-9.34814 16.8799,-18.93116 -1.92057,-3.71398 -5.87889,-6.08248 -18.57804,-11.11636 -17.19873,-6.81749 -21.14921,-9.48781 -24.89312,-16.82648 -6.69353,-13.1204 -1.0656,-29.33668 12.20528,-35.16826 7.0685,-3.10609 21.39264,-3.78879 31.22934,-1.48842 10.03393,2.34649 11.5157,3.54842 11.49699,9.32569 -0.0246,7.58191 -0.62507,7.93453 -9.00728,5.28906 C 342.16368,459.1244 328,462.98068 328,474.04072 c 0,6.24408 4.85087,10.58883 17.07538,15.29383 9.77231,3.76118 19.64804,9.14514 23.66578,12.90189 9.48259,8.86661 8.18021,29.247 -2.3839,37.30463 -8.59131,6.55291 -24.59121,8.97341 -39.97603,6.04765 z m 81.42766,0.37381 c -6.65167,-1.10583 -10.52336,-3.74125 -12.994,-8.84491 -1.91657,-3.95912 -2.20446,-6.70442 -2.72876,-26.02184 L 391.5,489.5 386,489 l -5.5,-0.5 v -5.5 -5.5 l 5.5,-0.5 5.5,-0.5 0.2874,-9.24033 c 0.32765,-10.53466 0.45163,-10.66236 9.77887,-10.07196 L 406.5,457.5 l 0.5,9.5 0.5,9.5 8.5,0.5 8.5,0.5 v 5.5 5.5 l -8.5,0.5 -8.5,0.5 v 20.21597 c 0,24.14453 -0.27831,23.51775 10.78269,24.28403 l 7.21731,0.5 0.29816,4.58759 c 0.18758,2.88628 -0.18326,4.96812 -1,5.6137 -1.85249,1.46429 -11.47224,2.17844 -16.98927,1.26124 z m 351.09407,0.0217 c -6.28551,-1.05918 -10.28533,-3.3079 -13.58977,-7.64024 -2.32946,-3.05409 -2.85009,-4.84441 -3.15298,-10.84235 -0.80372,-15.91607 7.36646,-22.44681 29.33979,-23.45243 l 12,-0.54919 0.31492,-3.82644 c 0.3788,-4.6025 -1.61158,-7.99993 -6.02326,-10.2813 -4.05437,-2.09659 -17.04599,-1.42094 -24.08858,1.25278 -5.62271,2.13465 -6.66222,1.37151 -6.68777,-4.90974 -0.0128,-3.14934 0.49363,-4.0742 3.09832,-5.65821 4.5259,-2.75236 14.9426,-4.42756 23.76938,-3.82256 12.66864,0.86833 19.49749,4.93801 22.80112,13.58843 1.45526,3.81056 1.72703,8.35798 1.76775,29.57991 L 798.5,544.5 l -6.13657,0.29477 c -6.0398,0.29013 -6.1533,0.24677 -7.19798,-2.75 C 784.58168,540.37015 783.91015,539 783.67317,539 c -0.23697,0 -3.04641,1.575 -6.24319,3.5 -3.19678,1.925 -7.03949,3.5 -8.53936,3.5 -1.49988,0 -3.32635,0.17074 -4.05883,0.37943 -0.73249,0.20869 -3.40046,0.0308 -5.92883,-0.39522 z M 776.03811,533.75 c 5.36745,-2.70665 7.95812,-7.25147 7.96034,-13.96482 0.002,-6.15901 -1.89327,-7.27705 -10.7907,-6.36548 -8.02054,0.82172 -12.23637,2.52994 -15.03985,6.09398 -2.32725,2.95862 -2.8591,8.32629 -1.14276,11.5333 2.72013,5.08261 11.74871,6.36617 19.01297,2.70302 z M 461,544.66184 c -11.67468,-2.60877 -19.99708,-9.16545 -24.89889,-19.61621 -2.20669,-4.70473 -2.59758,-6.91033 -2.57784,-14.54563 0.0196,-7.59307 0.43552,-9.88717 2.6604,-14.67515 3.51838,-7.57157 9.78881,-14.17276 16.67482,-17.55438 C 457.75413,475.86629 459.6899,475.5 467.5,475.5 c 7.80361,0 9.74768,0.36718 14.62454,2.76217 6.63306,3.25744 14.14069,10.90671 17.19619,17.5206 3.0753,6.65676 3.08449,22.61039 0.0168,29.21723 -6.80493,14.6558 -23.17313,23.05041 -38.33756,19.66184 z m 17.60917,-5.27026 c 5.60563,-2.33983 11.26432,-7.12263 14.54215,-12.29124 4.79917,-7.5675 4.5084,-8.00904 -9.50612,-14.43521 C 476.80867,509.53033 469.86031,507 468.08859,507 462.58737,507 439,517.6508 439,520.13486 c 0,1.64126 3.80136,8.47562 6.49443,11.67615 7.60688,9.04026 21.82178,12.29432 33.11474,7.58057 z m -29.39242,-30.29353 c 5.65579,-2.69608 12.15849,-5.40339 14.45045,-6.01625 4.93101,-1.31854 8.61076,-0.28322 23.22981,6.53584 11.2359,5.24098 12.67783,4.88382 11.75459,-2.91156 -1.29137,-10.90358 -8.84372,-21.77631 -17.90996,-25.78406 -7.75017,-3.42597 -19.36692,-3.29971 -26.28179,0.28566 -5.79311,3.00375 -12.94407,10.31363 -15.07235,15.40733 -2.34893,5.62177 -3.50977,13.288 -2.34241,15.46924 0.5639,1.05366 1.21948,1.91575 1.45684,1.91575 0.23736,0 5.05903,-2.20588 10.71482,-4.90195 z M 514.2367,511.25 514.5,477.5 h 6.459 6.45901 l 0.67507,3.30075 c 0.3713,1.81541 0.93713,3.56279 1.25741,3.88308 0.32029,0.32028 2.22244,-0.8577 4.22701,-2.61774 4.52331,-3.97151 7.32529,-5.06609 12.96855,-5.06609 4.99786,0 5.86179,1.40811 5.27354,8.59532 L 551.5,489.5 l -5.60097,0.60225 c -6.79159,0.73028 -12.91481,3.98855 -15.4891,8.24201 -1.69268,2.79679 -1.94798,5.62972 -2.24446,24.90574 L 527.83094,545 h -6.92877 -6.92877 z m 118.63866,25.5 c -0.48428,-32.05649 -0.27674,-57.441 0.47831,-58.5 1.14708,-1.60887 10.84849,-1.64784 12.44633,-0.05 0.66,0.66 1.2,2.235 1.2,3.5 0,3.00362 1.49312,2.90561 5.35564,-0.35154 4.577,-3.85964 8.83501,-5.34846 15.29652,-5.34846 6.78928,0 13.4394,2.85226 16.59199,7.11636 2.69804,3.64929 3.69329,3.61632 7.31876,-0.24246 4.28475,-4.56048 9.91268,-6.82998 16.93709,-6.82998 10.27809,0 18.09958,5.25249 20.45599,13.73713 0.58669,2.11246 1.03527,14.84233 1.03843,29.46895 L 730,545 h -6.92068 -6.92068 l -0.32932,-23.75 c -0.30232,-21.80268 -0.4975,-24.03697 -2.38045,-27.25 -4.54288,-7.75184 -16.58358,-6.82044 -22.18494,1.7161 -1.5143,2.30781 -1.83469,5.94992 -2.26393,25.73607 L 688.5,544.5 h -7 -7 l -0.5,-24 c -0.52241,-25.07565 -0.83592,-26.87081 -5.23024,-29.94872 -3.34631,-2.34384 -10.83164,-1.98974 -14.77027,0.69872 C 647.48153,495.69909 647,497.86507 647,522.7344 V 545 h -7 -7 z"
         id="path10" />
    </g>
  </g>
</svg>
