<svg width="25" height="23" viewBox="0 0 25 23" fill="none" xmlns="http://www.w3.org/2000/svg">
<mask id="path-1-outside-1_8_28" maskUnits="userSpaceOnUse" x="0" y="0" width="25" height="23" fill="black">
<rect fill="white" width="25" height="23"/>
<path d="M19 11.9756L13.1475 13.6006L17.9619 18.9248L14.4658 20L9.57617 14.5928L3.5332 16.2715L3 4L19 11.9756Z"/>
</mask>
<path d="M19 11.9756L13.1475 13.6006L17.9619 18.9248L14.4658 20L9.57617 14.5928L3.5332 16.2715L3 4L19 11.9756Z" fill="#03A062"/>
<path d="M19 11.9756L19.5351 13.9027L24.5537 12.5092L19.8922 10.1856L19 11.9756ZM13.1475 13.6006L12.6124 11.6735L9.49192 12.5399L11.664 14.942L13.1475 13.6006ZM17.9619 18.9248L18.5498 20.8364L21.552 19.9131L19.4454 17.5834L17.9619 18.9248ZM14.4658 20L12.9824 21.3414L13.8365 22.286L15.0537 21.9116L14.4658 20ZM9.57617 14.5928L11.0596 13.2513L10.2311 12.3351L9.04085 12.6657L9.57617 14.5928ZM3.5332 16.2715L1.53509 16.3583L1.64431 18.8719L4.06852 18.1985L3.5332 16.2715ZM3 4L3.89224 2.21005L0.854545 0.695842L1.00189 4.08682L3 4ZM19 11.9756L18.4649 10.0485L12.6124 11.6735L13.1475 13.6006L13.6825 15.5277L19.5351 13.9027L19 11.9756ZM13.1475 13.6006L11.664 14.942L16.4785 20.2662L17.9619 18.9248L19.4454 17.5834L14.6309 12.2592L13.1475 13.6006ZM17.9619 18.9248L17.374 17.0132L13.8779 18.0884L14.4658 20L15.0537 21.9116L18.5498 20.8364L17.9619 18.9248ZM14.4658 20L15.9492 18.6586L11.0596 13.2513L9.57617 14.5928L8.09274 15.9342L12.9824 21.3414L14.4658 20ZM9.57617 14.5928L9.04085 12.6657L2.99788 14.3445L3.5332 16.2715L4.06852 18.1985L10.1115 16.5198L9.57617 14.5928ZM3.5332 16.2715L5.53132 16.1847L4.99811 3.91318L3 4L1.00189 4.08682L1.53509 16.3583L3.5332 16.2715ZM3 4L2.10776 5.78995L18.1078 13.7655L19 11.9756L19.8922 10.1856L3.89224 2.21005L3 4Z" fill="black" mask="url(#path-1-outside-1_8_28)"/>
</svg>
